<svg width="351" height="703" viewBox="0 0 351 703" fill="none" xmlns="http://www.w3.org/2000/svg">
<path d="M350.756 167.048H346.893V61.2393C346.893 53.1973 345.309 45.234 342.232 37.8041C339.154 30.3742 334.643 23.6232 328.957 17.9366C323.27 12.25 316.519 7.73915 309.089 4.66158C301.659 1.58401 293.696 6.56623e-06 285.654 1.38002e-10H61.4836C53.4415 -1.70717e-05 45.4782 1.58397 38.0483 4.66151C30.6184 7.73906 23.8674 12.2499 18.1808 17.9365C12.4942 23.6231 7.98334 30.374 4.90576 37.8039C1.82819 45.2338 0.244155 53.1971 0.244141 61.2392V641.715C0.244127 657.957 6.69608 673.533 18.1807 685.018C29.6652 696.502 45.2417 702.954 61.4834 702.954H285.654C301.895 702.954 317.472 696.502 328.957 685.018C340.441 673.533 346.893 657.957 346.893 641.715V242.365H350.756V167.048Z" fill="#3F3D56"/>
<path d="M288.125 15.9324H258.863C260.209 19.2315 260.723 22.811 260.359 26.3554C259.995 29.8998 258.766 33.3005 256.778 36.2577C254.791 39.215 252.107 41.6381 248.962 43.3136C245.818 44.9891 242.31 45.8656 238.747 45.8659H110.322C106.759 45.8656 103.251 44.9891 100.106 43.3136C96.9618 41.6381 94.2777 39.215 92.2903 36.2577C90.3029 33.3005 89.0732 29.8998 88.7096 26.3554C88.346 22.811 88.8597 19.2315 90.2054 15.9324H62.8749C50.7458 15.9324 39.1135 20.7506 30.537 29.3272C21.9604 37.9037 17.1421 49.536 17.1421 61.6651V641.289C17.1421 647.295 18.325 653.242 20.6233 658.79C22.9215 664.339 26.2902 669.381 30.5369 673.627C34.7836 677.874 39.8251 681.243 45.3737 683.541C50.9222 685.839 56.8692 687.022 62.8749 687.022H288.125C294.131 687.022 300.078 685.839 305.626 683.541C311.175 681.243 316.216 677.874 320.463 673.627C324.71 669.381 328.078 664.339 330.377 658.791C332.675 653.242 333.858 647.295 333.858 641.289V641.289V61.6652C333.858 55.6595 332.675 49.7125 330.377 44.164C328.078 38.6154 324.71 33.5739 320.463 29.3272C316.216 25.0805 311.175 21.7119 305.626 19.4136C300.078 17.1153 294.131 15.9324 288.125 15.9324Z" fill="white"/>
<path d="M282.482 677.07H68.5173C43.9321 677.07 23.9307 659.217 23.9307 637.274V608.463C23.9307 590.974 39.8596 576.745 59.4387 576.745H291.561C311.14 576.745 327.069 590.974 327.069 608.463V637.274C327.069 659.217 307.068 677.07 282.482 677.07Z" fill="#E5E5E5"/>
<path d="M91.0095 192.845H43.282C42.427 192.844 41.6073 192.504 41.0028 191.899C40.3982 191.295 40.0581 190.475 40.0571 189.62V141.893C40.0581 141.038 40.3982 140.218 41.0028 139.613C41.6073 139.009 42.427 138.669 43.282 138.668H91.0095C91.8644 138.669 92.6841 139.009 93.2887 139.613C93.8933 140.218 94.2333 141.038 94.2343 141.893V189.62C94.2333 190.475 93.8933 191.295 93.2887 191.899C92.6841 192.504 91.8644 192.844 91.0095 192.845V192.845Z" fill="#F50057"/>
<path d="M163.246 192.845H115.518C114.663 192.844 113.844 192.504 113.239 191.899C112.635 191.295 112.294 190.475 112.293 189.62V141.893C112.294 141.038 112.635 140.218 113.239 139.613C113.844 139.009 114.663 138.669 115.518 138.668H163.246C164.101 138.669 164.92 139.009 165.525 139.613C166.13 140.218 166.47 141.038 166.471 141.893V189.62C166.47 190.475 166.13 191.295 165.525 191.899C164.92 192.504 164.101 192.844 163.246 192.845V192.845Z" fill="#E5E5E5"/>
<path d="M235.482 192.845H187.754C186.899 192.844 186.079 192.504 185.475 191.899C184.87 191.295 184.53 190.475 184.529 189.62V141.893C184.53 141.038 184.87 140.218 185.475 139.613C186.079 139.009 186.899 138.669 187.754 138.668H235.482C236.337 138.669 237.156 139.009 237.761 139.613C238.365 140.218 238.705 141.038 238.706 141.893V189.62C238.705 190.475 238.365 191.295 237.761 191.899C237.156 192.504 236.337 192.844 235.482 192.845V192.845Z" fill="#E5E5E5"/>
<path d="M307.718 192.845H259.99C259.136 192.844 258.316 192.504 257.711 191.899C257.107 191.295 256.767 190.475 256.766 189.62V141.893C256.767 141.038 257.107 140.218 257.711 139.613C258.316 139.009 259.136 138.669 259.99 138.668H307.718C308.573 138.669 309.393 139.009 309.997 139.613C310.602 140.218 310.942 141.038 310.943 141.893V189.62C310.942 190.475 310.602 191.295 309.997 191.899C309.393 192.504 308.573 192.844 307.718 192.845V192.845Z" fill="#E5E5E5"/>
<path d="M90.8385 281.205H43.1111C42.2561 281.204 41.4364 280.864 40.8319 280.26C40.2273 279.655 39.8872 278.835 39.8862 277.98V230.253C39.8872 229.398 40.2273 228.578 40.8319 227.974C41.4364 227.369 42.2561 227.029 43.1111 227.028H90.8385C91.6935 227.029 92.5132 227.369 93.1178 227.974C93.7223 228.578 94.0624 229.398 94.0634 230.253V277.98C94.0624 278.835 93.7223 279.655 93.1178 280.26C92.5132 280.864 91.6935 281.204 90.8385 281.205Z" fill="#E5E5E5"/>
<path d="M163.075 281.205H115.347C114.492 281.204 113.673 280.864 113.068 280.26C112.464 279.655 112.124 278.835 112.123 277.98V230.253C112.124 229.398 112.464 228.578 113.068 227.974C113.673 227.369 114.492 227.029 115.347 227.028H163.075C163.93 227.029 164.75 227.369 165.354 227.974C165.959 228.578 166.299 229.398 166.3 230.253V277.98C166.299 278.835 165.959 279.655 165.354 280.26C164.75 280.864 163.93 281.204 163.075 281.205V281.205Z" fill="#E5E5E5"/>
<path d="M235.311 281.205H187.584C186.729 281.204 185.909 280.864 185.305 280.26C184.7 279.655 184.36 278.835 184.359 277.98V230.253C184.36 229.398 184.7 228.578 185.305 227.974C185.909 227.369 186.729 227.029 187.584 227.028H235.311C236.166 227.029 236.986 227.369 237.59 227.974C238.195 228.578 238.535 229.398 238.536 230.253V277.98C238.535 278.835 238.195 279.655 237.59 280.26C236.986 280.864 236.166 281.204 235.311 281.205V281.205Z" fill="#F50057"/>
<path d="M307.548 281.205H259.82C258.965 281.204 258.145 280.864 257.541 280.26C256.936 279.655 256.596 278.835 256.595 277.98V230.253C256.596 229.398 256.936 228.578 257.541 227.974C258.145 227.369 258.965 227.029 259.82 227.028H307.548C308.403 227.029 309.222 227.369 309.827 227.974C310.431 228.578 310.771 229.398 310.772 230.253V277.98C310.771 278.835 310.431 279.655 309.827 280.26C309.222 280.864 308.403 281.204 307.548 281.205V281.205Z" fill="#F50057"/>
<path d="M90.6682 369.566H42.9406C42.0857 369.565 41.266 369.225 40.6615 368.62C40.0569 368.015 39.7168 367.196 39.7158 366.341V318.613C39.7168 317.758 40.0569 316.939 40.6615 316.334C41.266 315.73 42.0857 315.389 42.9406 315.388H90.6682C91.5232 315.389 92.3428 315.73 92.9474 316.334C93.5519 316.939 93.892 317.758 93.893 318.613V366.341C93.892 367.196 93.5519 368.015 92.9474 368.62C92.3428 369.225 91.5232 369.565 90.6682 369.566V369.566Z" fill="#E5E5E5"/>
<path d="M162.904 369.566H115.177C114.322 369.565 113.502 369.225 112.898 368.62C112.293 368.015 111.953 367.196 111.952 366.341V318.613C111.953 317.758 112.293 316.939 112.898 316.334C113.502 315.73 114.322 315.389 115.177 315.388H162.904C163.759 315.389 164.579 315.73 165.184 316.334C165.788 316.939 166.128 317.758 166.129 318.613V366.341C166.128 367.196 165.788 368.015 165.184 368.62C164.579 369.225 163.759 369.565 162.904 369.566V369.566Z" fill="#E5E5E5"/>
<path d="M235.14 369.566H187.413C186.558 369.565 185.738 369.225 185.134 368.62C184.529 368.015 184.189 367.196 184.188 366.341V318.613C184.189 317.758 184.529 316.939 185.134 316.334C185.738 315.73 186.558 315.389 187.413 315.388H235.14C235.995 315.389 236.815 315.73 237.419 316.334C238.024 316.939 238.364 317.758 238.365 318.613V366.341C238.364 367.196 238.024 368.015 237.419 368.62C236.815 369.225 235.995 369.565 235.14 369.566V369.566Z" fill="#E5E5E5"/>
<path d="M307.377 369.566H259.649C258.794 369.565 257.975 369.225 257.37 368.62C256.765 368.015 256.425 367.196 256.424 366.341V318.613C256.425 317.758 256.765 316.939 257.37 316.334C257.975 315.73 258.794 315.389 259.649 315.388H307.377C308.232 315.389 309.051 315.73 309.656 316.334C310.26 316.939 310.6 317.758 310.602 318.613V366.341C310.6 367.196 310.26 368.015 309.656 368.62C309.051 369.225 308.232 369.565 307.377 369.566V369.566Z" fill="#E5E5E5"/>
<path d="M90.4973 457.926H42.7697C41.9148 457.925 41.0951 457.585 40.4906 456.98C39.886 456.376 39.5459 455.556 39.5449 454.701V406.974C39.5459 406.119 39.886 405.299 40.4906 404.695C41.0951 404.09 41.9148 403.75 42.7697 403.749H90.4973C91.3523 403.75 92.1719 404.09 92.7765 404.695C93.381 405.299 93.7211 406.119 93.7221 406.974V454.701C93.7211 455.556 93.381 456.376 92.7765 456.98C92.1719 457.585 91.3523 457.925 90.4973 457.926V457.926Z" fill="#E5E5E5"/>
<path d="M162.734 457.926H115.006C114.151 457.925 113.331 457.585 112.727 456.98C112.122 456.376 111.782 455.556 111.781 454.701V406.974C111.782 406.119 112.122 405.299 112.727 404.695C113.331 404.09 114.151 403.75 115.006 403.749H162.734C163.589 403.75 164.408 404.09 165.013 404.695C165.617 405.299 165.957 406.119 165.958 406.974V454.701C165.957 455.556 165.617 456.376 165.013 456.98C164.408 457.585 163.589 457.925 162.734 457.926Z" fill="#E5E5E5"/>
<path d="M234.97 457.926H187.242C186.387 457.925 185.568 457.585 184.963 456.98C184.359 456.376 184.019 455.556 184.018 454.701V406.974C184.019 406.119 184.359 405.299 184.963 404.695C185.568 404.09 186.387 403.75 187.242 403.749H234.97C235.825 403.75 236.645 404.09 237.249 404.695C237.854 405.299 238.194 406.119 238.195 406.974V454.701C238.194 455.556 237.854 456.376 237.249 456.98C236.645 457.585 235.825 457.925 234.97 457.926Z" fill="#E5E5E5"/>
<path d="M307.206 457.926H259.478C258.623 457.925 257.804 457.585 257.199 456.98C256.595 456.376 256.254 455.556 256.253 454.701V406.974C256.254 406.119 256.595 405.299 257.199 404.695C257.804 404.09 258.623 403.75 259.478 403.749H307.206C308.061 403.75 308.88 404.09 309.485 404.695C310.09 405.299 310.43 406.119 310.431 406.974V454.701C310.43 455.556 310.09 456.376 309.485 456.98C308.88 457.585 308.061 457.925 307.206 457.926V457.926Z" fill="#E5E5E5"/>
<path d="M91.0095 655.286H43.282C42.427 655.285 41.6073 654.945 41.0028 654.34C40.3982 653.736 40.0581 652.916 40.0571 652.061V604.333C40.0581 603.479 40.3982 602.659 41.0028 602.054C41.6073 601.45 42.427 601.11 43.282 601.109H91.0095C91.8644 601.11 92.6841 601.45 93.2887 602.054C93.8933 602.659 94.2333 603.479 94.2343 604.333V652.061C94.2333 652.916 93.8933 653.736 93.2887 654.34C92.6841 654.945 91.8644 655.285 91.0095 655.286Z" fill="white"/>
<path d="M163.246 655.286H115.518C114.663 655.285 113.844 654.945 113.239 654.34C112.635 653.736 112.294 652.916 112.293 652.061V604.333C112.294 603.479 112.635 602.659 113.239 602.054C113.844 601.45 114.663 601.11 115.518 601.109H163.246C164.101 601.11 164.92 601.45 165.525 602.054C166.13 602.659 166.47 603.479 166.471 604.333V652.061C166.47 652.916 166.13 653.736 165.525 654.34C164.92 654.945 164.101 655.285 163.246 655.286V655.286Z" fill="white"/>
<path d="M235.482 655.286H187.754C186.899 655.285 186.079 654.945 185.475 654.34C184.87 653.736 184.53 652.916 184.529 652.061V604.333C184.53 603.479 184.87 602.659 185.475 602.054C186.079 601.45 186.899 601.11 187.754 601.109H235.482C236.337 601.11 237.156 601.45 237.761 602.054C238.365 602.659 238.705 603.479 238.706 604.333V652.061C238.705 652.916 238.365 653.736 237.761 654.34C237.156 654.945 236.337 655.285 235.482 655.286V655.286Z" fill="white"/>
<path d="M307.718 655.286H259.99C259.136 655.285 258.316 654.945 257.711 654.34C257.107 653.736 256.767 652.916 256.766 652.061V604.333C256.767 603.479 257.107 602.659 257.711 602.054C258.316 601.45 259.136 601.11 259.99 601.109H307.718C308.573 601.11 309.393 601.45 309.997 602.054C310.602 602.659 310.942 603.479 310.943 604.333V652.061C310.942 652.916 310.602 653.736 309.997 654.34C309.393 654.945 308.573 655.285 307.718 655.286Z" fill="white"/>
<path d="M152.11 554.671C155.672 554.671 158.56 551.783 158.56 548.221C158.56 544.659 155.672 541.772 152.11 541.772C148.548 541.772 145.661 544.659 145.661 548.221C145.661 551.783 148.548 554.671 152.11 554.671Z" fill="#E5E5E5"/>
<path d="M175.33 554.671C178.892 554.671 181.779 551.783 181.779 548.221C181.779 544.659 178.892 541.772 175.33 541.772C171.767 541.772 168.88 544.659 168.88 548.221C168.88 551.783 171.767 554.671 175.33 554.671Z" fill="#E5E5E5"/>
<path d="M198.548 554.671C202.11 554.671 204.998 551.783 204.998 548.221C204.998 544.659 202.11 541.772 198.548 541.772C194.986 541.772 192.099 544.659 192.099 548.221C192.099 551.783 194.986 554.671 198.548 554.671Z" fill="#E5E5E5"/>
</svg>
