<svg width="558" height="316" viewBox="0 0 558 316" fill="none" xmlns="http://www.w3.org/2000/svg">
<path d="M163.481 152H22.5572C10.0992 152 0 161.86 0 174.024V290.976C0 303.14 10.0992 313 22.5572 313H163.481C175.939 313 186.039 303.14 186.039 290.976V174.024C186.039 161.86 175.939 152 163.481 152Z" fill="#E0E0E0"/>
<path d="M57.5349 302.007V289.922C57.5397 289.748 57.5056 289.575 57.4351 289.415C57.3645 289.256 57.2592 289.113 57.1264 288.997C56.9936 288.881 56.8365 288.795 56.6661 288.744C56.4957 288.694 56.316 288.68 56.1396 288.704C54.3795 288.737 52.6439 289.112 51.0341 289.808V301.976H47.5459V279.601H51.0236V286.991C52.8082 286.31 54.7 285.937 56.6153 285.886C59.7864 285.886 60.9597 287.785 60.9597 290.386V301.997H57.5138L57.5349 302.007ZM67.4816 294.7C67.5979 298.746 68.4118 299.54 70.9593 299.54C73.0223 299.447 75.0533 299.007 76.9632 298.24L77.5446 300.789C75.4224 301.803 73.0993 302.352 70.7373 302.399C64.9342 302.399 64.0357 299.303 64.0357 294.329C63.9679 291.821 64.2597 289.316 64.9025 286.887C67.1497 286.139 69.5161 285.79 71.8895 285.855C76.6461 285.855 78.0943 288.436 78.0943 292.935V294.659H67.5239L67.4816 294.7ZM71.8895 288.725C70.5307 288.702 69.1726 288.795 67.8305 289.003C67.597 290.104 67.4696 291.223 67.4499 292.347H74.7012C74.7012 289.994 74.2678 288.725 71.8895 288.725ZM84.5739 289.829V301.997H81.0963V288.301C83.5983 287.031 86.3463 286.289 89.1615 286.124V288.952C87.5979 289.006 86.0531 289.302 84.5845 289.829H84.5739ZM98.3154 302.399C93.1254 302.399 90.7787 299.912 90.7787 294.215C90.7787 288.188 93.8759 285.897 98.3154 285.897C103.505 285.897 105.852 288.384 105.852 294.081C105.852 300.108 102.744 302.399 98.3154 302.399ZM98.3154 288.725C95.6517 288.725 94.1718 290.221 94.1718 294.215C94.1718 298.57 95.4191 299.54 98.3154 299.54C100.979 299.54 102.459 298.065 102.459 294.081C102.459 289.726 101.212 288.735 98.3154 288.735V288.725ZM122.627 301.997H118.537C117.573 299.34 116.098 296.888 114.192 294.772H112.363V301.997H108.96V279.601H112.437V292.45H114.065C115.798 290.642 117.184 288.545 118.156 286.258H122.067C120.797 288.784 119.123 291.097 117.11 293.111C119.297 295.856 121.172 298.825 122.701 301.966L122.627 301.997ZM129.149 302.389C125.978 302.389 124.805 300.49 124.805 297.889V286.299H128.251V298.333C128.246 298.507 128.28 298.68 128.351 298.839C128.421 298.999 128.526 299.142 128.659 299.258C128.792 299.374 128.949 299.46 129.12 299.51C129.29 299.561 129.47 299.575 129.646 299.551C131.464 299.52 133.259 299.145 134.931 298.446V286.299H138.451V299.943C135.65 301.54 132.467 302.387 129.223 302.399L129.149 302.389ZM127.617 273.894H58.3065C56.8953 273.897 55.4974 273.628 54.1927 273.103C52.8879 272.578 51.702 271.807 50.7026 270.834C49.7033 269.861 48.9101 268.705 48.3685 267.433C47.8268 266.161 47.5473 264.797 47.5459 263.419V174.404C47.5459 173.027 47.8237 171.664 48.3634 170.392C48.9031 169.119 49.6942 167.963 50.6914 166.99C51.6887 166.016 52.8726 165.244 54.1756 164.717C55.4786 164.19 56.8751 163.919 58.2854 163.919H127.659C129.073 163.913 130.475 164.18 131.783 164.705C133.092 165.229 134.281 166 135.284 166.975C136.286 167.949 137.082 169.106 137.626 170.381C138.169 171.656 138.45 173.023 138.451 174.404V263.419C138.451 264.797 138.173 266.161 137.633 267.434C137.092 268.707 136.3 269.863 135.302 270.837C134.304 271.811 133.118 272.583 131.814 273.109C130.51 273.635 129.112 273.906 127.701 273.904L127.617 273.894Z" fill="#6762A6"/>
<path d="M104.509 258.774V215.098C104.509 215.098 107.416 204.643 68.6648 219.371C68.5908 219.556 68.5908 178.976 68.5908 178.976L81.2753 178.904V204.901C81.2753 204.901 116.728 191.268 116.728 215.222V258.754H104.509V258.774ZM111.729 194.632H98.283C103.114 188.863 107.49 178.976 107.49 178.976H121.379C121.379 178.976 119.001 185.416 111.707 194.632H111.729ZM68.8234 258.692V233.819L81.5607 246.255L68.8234 258.692V258.692Z" fill="white"/>
<g opacity="0.7">
<path opacity="0.7" d="M353.465 0H213.345C201.556 0 192 9.31555 192 20.8069V137.146C192 148.637 201.556 157.953 213.345 157.953H353.465C365.254 157.953 374.81 148.637 374.81 137.146V20.8069C374.81 9.31555 365.254 0 353.465 0Z" fill="url(#paint0_linear_76_1433)"/>
</g>
<path d="M350.075 2.92505H216.726C204.937 2.92505 195.381 12.2406 195.381 23.7319V134.221C195.381 145.712 204.937 155.028 216.726 155.028H350.075C361.863 155.028 371.42 145.712 371.42 134.221V23.7319C371.42 12.2406 361.863 2.92505 350.075 2.92505Z" fill="#E0E0E0"/>
<path d="M251.973 67.4908C251.937 68.8933 252.116 70.2932 252.503 71.6444C252.928 72.8008 253.439 73.9251 254.034 75.0082C254.248 75.3274 254.366 75.6992 254.374 76.0807C254.345 76.3677 254.247 76.644 254.089 76.8878C253.931 77.1315 253.717 77.3359 253.464 77.4848L250.463 79.4348C250.097 79.6908 249.662 79.8366 249.213 79.8541C248.666 79.8187 248.152 79.5858 247.772 79.2008C247.128 78.5248 246.552 77.7901 246.052 77.007C245.572 76.2173 245.052 75.33 244.572 74.2477C242.883 76.297 240.736 77.943 238.296 79.0599C235.855 80.1769 233.184 80.7353 230.488 80.6926C226.488 80.6926 223.257 79.5713 220.906 77.3288C218.491 74.7573 217.22 71.3571 217.372 67.8736C217.523 64.3901 219.086 61.1074 221.717 58.745C224.637 56.3172 228.518 55.0984 233.449 55.0984C235.149 55.1107 236.847 55.2345 238.53 55.4689C240.301 55.7029 242.121 56.0734 244.041 56.4926V53.0801C244.041 49.531 243.271 47.0545 241.791 45.6115C240.311 44.1684 237.67 43.4664 233.979 43.4664C232.237 43.4657 230.501 43.6687 228.808 44.0709C227.048 44.4805 225.32 45.0116 223.637 45.6602C223.091 45.8971 222.53 46.099 221.957 46.2647C221.707 46.3435 221.448 46.3894 221.186 46.4012C220.516 46.4012 220.186 45.9332 220.186 44.9582V42.6669C220.134 42.1003 220.252 41.531 220.526 41.0289C220.888 40.6056 221.347 40.2715 221.867 40.0539C223.777 39.1279 225.791 38.4212 227.868 37.9478C230.308 37.337 232.82 37.0387 235.34 37.0605C241.041 37.0605 245.212 38.3183 247.892 40.8436C250.573 43.3689 251.893 47.191 251.893 52.3293V67.4908H251.973ZM232.529 74.589C234.208 74.5714 235.874 74.2881 237.46 73.7504C239.219 73.1566 240.788 72.1247 242.011 70.7571C242.784 69.8955 243.342 68.871 243.641 67.7639C243.971 66.4328 244.132 65.0673 244.121 63.698V61.748C242.667 61.4045 241.195 61.1409 239.711 60.9582C238.218 60.7726 236.714 60.6782 235.21 60.6755C231.999 60.6755 229.648 61.28 228.068 62.5475C226.869 63.3964 225.986 64.6016 225.55 65.982C225.115 67.3623 225.151 68.8431 225.653 70.2019C226.154 71.5607 227.095 72.7239 228.333 73.5168C229.572 74.3097 231.04 74.6893 232.519 74.5987L232.529 74.589ZM270.997 79.6298C270.352 79.6944 269.705 79.528 269.177 79.1618C268.677 78.6557 268.331 78.0246 268.177 77.3385L256.924 41.2629C256.706 40.6575 256.562 40.0291 256.494 39.3908C256.47 39.2361 256.483 39.0781 256.532 38.9289C256.58 38.7798 256.663 38.6434 256.774 38.5304C256.886 38.4175 257.022 38.3308 257.173 38.2771C257.323 38.2234 257.485 38.2042 257.644 38.2208H262.335C262.997 38.142 263.665 38.3091 264.206 38.6889C264.705 39.1955 265.051 39.8263 265.206 40.5121L273.208 71.4299L280.679 40.5121C280.777 39.8258 281.096 39.1875 281.59 38.6889C282.165 38.3444 282.836 38.181 283.51 38.2208H287.341C288.018 38.1508 288.698 38.3166 289.261 38.6889C289.763 39.1822 290.083 39.8232 290.172 40.5121L297.743 71.8004L306.035 40.5121C306.199 39.8296 306.544 39.2009 307.035 38.6889C307.592 38.344 308.247 38.1801 308.906 38.2208H313.357C313.52 38.198 313.686 38.2125 313.842 38.2632C313.999 38.314 314.141 38.3995 314.257 38.513C314.374 38.6266 314.461 38.7651 314.513 38.9174C314.565 39.0698 314.58 39.2319 314.557 39.3908C314.544 39.6433 314.511 39.8944 314.457 40.1416C314.38 40.541 314.267 40.9326 314.117 41.3117L302.574 77.3873C302.432 78.0778 302.084 78.712 301.574 79.2106C301.033 79.5491 300.396 79.7129 299.754 79.6786H295.633C294.956 79.7486 294.276 79.5828 293.712 79.2106C293.212 78.6974 292.893 78.0413 292.802 77.3385L285.381 47.2203L277.999 77.2898C277.888 77.9864 277.571 78.6367 277.089 79.1618C276.521 79.525 275.844 79.6901 275.168 79.6298H270.997ZM332.551 80.8876C330.065 80.8912 327.588 80.6098 325.169 80.0491C323.254 79.6687 321.401 79.0391 319.658 78.177C319.043 77.8933 318.528 77.4387 318.178 76.8705C317.99 76.4589 317.892 76.0143 317.888 75.564V73.185C317.888 72.21 318.268 71.7419 318.988 71.7419C319.28 71.7419 319.571 71.788 319.848 71.8784C320.138 71.9759 320.568 72.1612 321.048 72.3464C322.741 73.0732 324.508 73.6223 326.319 73.9844C328.196 74.3542 330.106 74.5404 332.021 74.5402C334.457 74.6815 336.884 74.1474 339.022 72.9997C339.802 72.5404 340.443 71.8879 340.881 71.1087C341.318 70.3295 341.536 69.4513 341.513 68.5633C341.53 67.9628 341.425 67.3649 341.203 66.8042C340.982 66.2436 340.648 65.7313 340.223 65.2971C338.821 64.137 337.165 63.3064 335.381 62.8693L328.39 60.7632C324.889 59.6907 322.309 58.1015 320.728 55.9954C319.189 54.0581 318.348 51.6794 318.338 49.2288C318.297 47.4198 318.742 45.6318 319.628 44.0417C320.483 42.5383 321.66 41.2315 323.079 40.2099C324.578 39.1064 326.273 38.2833 328.08 37.7821C330.03 37.2359 332.052 36.9698 334.081 36.9923C335.154 36.984 336.227 37.0459 337.292 37.1775C338.392 37.314 339.402 37.5091 340.403 37.6943C341.403 37.8796 342.273 38.1624 343.133 38.4451C343.828 38.656 344.499 38.937 345.134 39.2836C345.699 39.5611 346.192 39.9614 346.574 40.4536C346.885 40.908 347.036 41.4487 347.004 41.9941V44.1879C347.004 45.1629 346.624 45.6797 345.904 45.6797C345.266 45.61 344.648 45.4213 344.083 45.124C341.187 43.8752 338.048 43.2532 334.881 43.3007C332.676 43.1734 330.476 43.6246 328.51 44.6072C327.779 45.0307 327.182 45.6426 326.785 46.3754C326.388 47.1082 326.206 47.9336 326.259 48.7607C326.247 49.381 326.368 49.9969 326.617 50.5682C326.865 51.1395 327.234 51.6532 327.7 52.0758C329.255 53.2776 331.051 54.1509 332.971 54.6401L339.772 56.7461C343.223 57.8187 345.714 59.3105 347.194 61.2313C348.656 63.1115 349.431 65.4145 349.395 67.7736C349.418 69.6511 348.99 71.5078 348.144 73.1947C347.293 74.7917 346.099 76.1916 344.643 77.2995C343.061 78.499 341.253 79.3865 339.322 79.9125C337.103 80.5761 334.792 80.9049 332.471 80.8876H332.551Z" fill="#252F3E"/>
<path d="M341.603 103.566C325.84 114.916 302.945 120.941 283.261 120.941C256.96 121.074 231.556 111.63 212.025 94.4597C210.545 93.1532 211.885 91.3787 213.655 92.4024C232.575 103.04 253.764 109.263 275.562 110.585C297.361 111.906 319.178 108.289 339.303 100.017C341.933 98.8473 344.194 101.694 341.603 103.566V103.566Z" fill="#FF9900"/>
<path d="M348.164 96.3026C346.164 93.7773 334.852 95.0838 329.72 95.6981C328.19 95.8833 327.95 94.5768 329.34 93.5921C338.342 87.4299 353.146 89.2045 354.876 91.2617C356.606 93.319 354.396 107.837 345.964 114.662C344.674 115.735 343.423 115.179 343.964 113.775C345.914 109.183 350.175 98.7694 348.164 96.3026Z" fill="#FF9900"/>
<g opacity="0.7">
<path opacity="0.7" d="M536.465 158H396.345C384.556 158 375 167.316 375 178.807V295.146C375 306.637 384.556 315.953 396.345 315.953H536.465C548.254 315.953 557.81 306.637 557.81 295.146V178.807C557.81 167.316 548.254 158 536.465 158Z" fill="url(#paint1_linear_76_1433)"/>
</g>
<path d="M533.075 160.925H399.726C387.937 160.925 378.381 170.241 378.381 181.732V292.221C378.381 303.712 387.937 313.028 399.726 313.028H533.075C544.863 313.028 554.419 303.712 554.419 292.221V181.732C554.419 170.241 544.863 160.925 533.075 160.925Z" fill="#E0E0E0"/>
<path d="M441.904 276.591L418.239 236.616L441.904 196.64H489.225L512.89 236.616L489.225 276.591H441.904Z" fill="#CAC9C2"/>
<path d="M466.38 254.878C462.732 254.878 459.166 253.823 456.133 251.848C453.1 249.872 450.736 247.064 449.34 243.779C447.944 240.493 447.578 236.878 448.29 233.391C449.002 229.903 450.758 226.699 453.338 224.185C455.917 221.671 459.204 219.958 462.781 219.264C466.359 218.571 470.068 218.927 473.438 220.288C476.808 221.648 479.689 223.953 481.715 226.91C483.742 229.866 484.824 233.342 484.824 236.898C484.818 241.665 482.873 246.235 479.416 249.606C475.958 252.977 471.27 254.872 466.38 254.878" fill="white"/>
<path d="M503.468 183.292C502.599 181.997 501.431 180.919 500.057 180.145C498.682 179.371 497.141 178.923 495.556 178.836H437.243C435.659 178.923 434.117 179.371 432.743 180.145C431.369 180.919 430.2 181.997 429.332 183.292L412.328 212.055C412.162 213.857 412.53 215.667 413.388 217.271L424.921 236.489L445.505 201.817H510.58C512.272 201.883 513.916 202.387 515.341 203.28L503.498 183.282" fill="#5072AA"/>
<path d="M413.038 210.807L412.288 212.065C412.122 213.867 412.49 215.677 413.348 217.281L424.881 236.499L431.012 226.163L413.008 210.797" fill="#4D6796"/>
<path d="M438.744 193.627C438.04 193.627 437.352 193.424 436.766 193.042C436.181 192.661 435.724 192.119 435.455 191.484C435.185 190.85 435.115 190.152 435.252 189.479C435.389 188.806 435.729 188.187 436.227 187.702C436.725 187.216 437.359 186.886 438.05 186.752C438.74 186.618 439.456 186.687 440.107 186.949C440.758 187.212 441.314 187.657 441.705 188.228C442.096 188.799 442.305 189.47 442.305 190.156C442.305 191.077 441.93 191.96 441.262 192.611C440.594 193.261 439.689 193.627 438.744 193.627V193.627ZM497.057 190.156C497.062 190.578 496.982 190.997 496.822 191.389C496.661 191.78 496.422 192.137 496.12 192.439C495.818 192.741 495.457 192.982 495.06 193.148C494.662 193.315 494.234 193.403 493.801 193.408C493.369 193.413 492.939 193.335 492.537 193.178C492.135 193.021 491.769 192.789 491.459 192.494C490.834 191.899 490.476 191.086 490.466 190.234C490.466 190.234 490.466 190.176 490.466 190.156C490.466 189.304 490.813 188.487 491.431 187.884C492.049 187.282 492.887 186.943 493.761 186.943C494.636 186.943 495.474 187.282 496.092 187.884C496.71 188.487 497.057 189.304 497.057 190.156V190.156Z" fill="white"/>
<path d="M532.614 232.521L515.3 203.27C513.875 202.378 512.232 201.873 510.539 201.808H487.084L507.389 236.694L475.262 292.026C474.442 293.305 473.307 294.364 471.961 295.107H495.566C497.151 295.02 498.692 294.572 500.066 293.798C501.441 293.024 502.609 291.946 503.478 290.651L532.634 241.423C533.35 240.043 533.723 238.518 533.723 236.972C533.723 235.425 533.35 233.901 532.634 232.521" fill="#CC4232"/>
<path d="M516.091 204.606L515.311 203.29C513.886 202.397 512.243 201.892 510.55 201.827H487.085L493.196 212.318L516.091 204.596" fill="#B23F33"/>
<path d="M493.756 286.605C493.052 286.605 492.363 286.401 491.778 286.02C491.192 285.638 490.736 285.096 490.466 284.462C490.197 283.828 490.126 283.13 490.264 282.456C490.401 281.783 490.74 281.165 491.238 280.679C491.736 280.194 492.371 279.863 493.061 279.729C493.752 279.595 494.468 279.664 495.119 279.927C495.769 280.189 496.325 280.634 496.717 281.205C497.108 281.776 497.317 282.447 497.317 283.134C497.317 284.054 496.942 284.937 496.274 285.588C495.606 286.239 494.7 286.605 493.756 286.605V286.605ZM521.452 240.369C520.748 240.369 520.059 240.166 519.474 239.784C518.888 239.403 518.432 238.861 518.162 238.227C517.893 237.592 517.822 236.894 517.96 236.221C518.097 235.548 518.436 234.929 518.934 234.444C519.432 233.958 520.067 233.628 520.757 233.494C521.448 233.36 522.164 233.429 522.815 233.691C523.465 233.954 524.022 234.399 524.413 234.97C524.804 235.541 525.013 236.212 525.013 236.898C525.013 237.819 524.638 238.702 523.97 239.353C523.302 240.004 522.397 240.369 521.452 240.369" fill="white"/>
<path d="M445.926 271.57L413.368 217.281C412.511 215.677 412.143 213.867 412.308 212.065L400.196 232.54C399.481 233.92 399.108 235.445 399.108 236.991C399.108 238.537 399.481 240.062 400.196 241.442L429.372 290.651C430.242 291.944 431.411 293.02 432.785 293.792C434.159 294.564 435.7 295.011 437.284 295.097H471.981C473.328 294.354 474.462 293.295 475.282 292.016L487.165 271.541H445.926" fill="#ECB02A"/>
<path d="M469.971 295.107H471.971C473.318 294.364 474.453 293.305 475.272 292.026L487.154 271.551H474.522L469.971 295.087" fill="#C79732"/>
<path d="M438.744 286.605C438.04 286.605 437.352 286.401 436.766 286.02C436.181 285.638 435.724 285.096 435.455 284.462C435.185 283.828 435.115 283.13 435.252 282.456C435.389 281.783 435.729 281.165 436.227 280.679C436.725 280.194 437.359 279.863 438.05 279.729C438.74 279.595 439.456 279.664 440.107 279.927C440.758 280.189 441.314 280.634 441.705 281.205C442.096 281.776 442.305 282.447 442.305 283.134C442.305 284.054 441.93 284.937 441.262 285.588C440.595 286.239 439.689 286.605 438.744 286.605V286.605ZM410.998 240.369C410.294 240.369 409.606 240.166 409.02 239.784C408.434 239.403 407.978 238.861 407.709 238.227C407.439 237.592 407.369 236.894 407.506 236.221C407.643 235.548 407.982 234.929 408.48 234.444C408.978 233.958 409.613 233.628 410.304 233.494C410.994 233.36 411.71 233.429 412.361 233.691C413.012 233.954 413.568 234.399 413.959 234.97C414.35 235.541 414.559 236.212 414.559 236.898C414.559 237.819 414.184 238.702 413.516 239.353C412.848 240.004 411.943 240.369 410.998 240.369Z" fill="white"/>
<defs>
<linearGradient id="paint0_linear_76_1433" x1="283.4" y1="157.953" x2="283.4" y2="0" gradientUnits="userSpaceOnUse">
<stop stop-color="#808080" stop-opacity="0.25"/>
<stop offset="0.54" stop-color="#808080" stop-opacity="0.12"/>
<stop offset="1" stop-color="#808080" stop-opacity="0.1"/>
</linearGradient>
<linearGradient id="paint1_linear_76_1433" x1="466.4" y1="315.953" x2="466.4" y2="158" gradientUnits="userSpaceOnUse">
<stop stop-color="#808080" stop-opacity="0.25"/>
<stop offset="0.54" stop-color="#808080" stop-opacity="0.12"/>
<stop offset="1" stop-color="#808080" stop-opacity="0.1"/>
</linearGradient>
</defs>
</svg>
