<svg width="563" height="696" viewBox="0 0 563 696" fill="none" xmlns="http://www.w3.org/2000/svg">
<path d="M467.817 165.283H463.996V60.5937C463.996 44.5233 457.612 29.111 446.248 17.7475C434.885 6.38397 419.472 1.06087e-05 403.402 0H181.596C173.639 0 165.76 1.5673 158.408 4.61242C151.056 7.65754 144.377 12.1208 138.75 17.7475C133.123 23.3741 128.66 30.0539 125.615 37.4055C122.57 44.7571 121.002 52.6364 121.002 60.5937V634.937C121.002 651.008 127.386 666.42 138.75 677.783C150.113 689.147 165.526 695.531 181.596 695.531H403.402C419.472 695.531 434.884 689.147 446.248 677.783C457.611 666.42 463.995 651.007 463.995 634.937V239.803H467.816L467.817 165.283Z" fill="#E6E6E6"/>
<path d="M405.847 15.7585H376.897C378.228 19.023 378.736 22.5649 378.376 26.0721C378.017 29.5793 376.8 32.9441 374.833 35.8702C372.866 38.7963 370.21 41.1938 367.098 42.8515C363.987 44.5091 360.515 45.3761 356.99 45.3759H229.92C226.394 45.3758 222.923 44.5086 219.812 42.8508C216.7 41.193 214.044 38.7955 212.078 35.8695C210.111 32.9434 208.894 29.5787 208.535 26.0716C208.175 22.5646 208.683 19.0228 210.015 15.7585H182.973C170.972 15.7585 159.462 20.526 150.976 29.0121C142.49 37.4983 137.722 49.008 137.722 61.0093V634.519C137.722 646.52 142.49 658.03 150.976 666.516C159.462 675.002 170.972 679.769 182.973 679.769H405.847C417.848 679.769 429.358 675.002 437.844 666.516C446.33 658.03 451.098 646.52 451.098 634.519V634.519V61.0083C451.098 49.0072 446.33 37.4978 437.844 29.0118C429.358 20.5258 417.848 15.7585 405.847 15.7585V15.7585Z" fill="white"/>
<path d="M226.994 149.53C225.787 149.541 224.59 149.298 223.483 148.815C222.376 148.333 221.382 147.624 220.567 146.732C219.6 145.613 218.875 144.307 218.437 142.894C217.999 141.481 217.858 139.994 218.024 138.524C218.254 135.725 219.427 133.087 221.351 131.041C222.275 130.042 223.394 129.242 224.638 128.691C225.883 128.139 227.227 127.848 228.588 127.835C229.853 127.829 231.105 128.09 232.263 128.6C233.421 129.111 234.459 129.859 235.309 130.797C236.273 131.886 237 133.163 237.446 134.548C237.892 135.933 238.045 137.394 237.897 138.841V138.841C237.717 141.811 236.437 144.607 234.305 146.682C232.321 148.529 229.705 149.548 226.994 149.53V149.53ZM228.588 131.451C225.048 131.451 221.99 134.697 221.626 138.841C221.505 139.811 221.586 140.796 221.862 141.733C222.139 142.671 222.606 143.541 223.234 144.29C223.709 144.813 224.29 145.228 224.939 145.508C225.587 145.788 226.288 145.927 226.994 145.914C230.304 145.914 233.845 143.629 234.295 138.524C234.399 137.576 234.306 136.618 234.022 135.708C233.737 134.799 233.267 133.958 232.642 133.239C232.129 132.673 231.504 132.221 230.805 131.913C230.107 131.605 229.351 131.448 228.588 131.451Z" fill="#3F3D56"/>
<path d="M227.112 160.378C224.315 160.424 221.54 159.874 218.972 158.765C216.403 157.657 214.1 156.015 212.215 153.948C210.329 151.881 208.905 149.438 208.036 146.778C207.167 144.119 206.874 141.306 207.175 138.525C207.768 132.687 210.482 127.27 214.802 123.3C219.123 119.331 224.75 117.084 230.617 116.987C237.126 116.987 242.482 119.078 246.105 123.035C249.541 126.787 251.15 132.068 250.635 137.907C250.148 143.438 247.802 146.318 245.919 147.761C245.088 148.438 244.128 148.94 243.096 149.236C242.065 149.531 240.985 149.614 239.921 149.48C236.945 148.952 233.653 146.249 234.171 140.366L235.129 129.49C235.173 129.014 235.404 128.575 235.771 128.269C236.138 127.963 236.612 127.814 237.088 127.856C237.564 127.898 238.004 128.127 238.312 128.493C238.62 128.858 238.771 129.331 238.731 129.807L237.773 140.683C237.515 143.608 238.554 145.565 240.552 145.92C241.703 146.009 242.842 145.639 243.72 144.89C245.026 143.889 246.662 141.81 247.033 137.59C247.464 132.704 246.221 128.515 243.439 125.477C240.518 122.288 236.085 120.603 230.617 120.603C225.654 120.697 220.896 122.603 217.242 125.963C213.587 129.322 211.288 133.903 210.778 138.84C210.52 141.122 210.753 143.432 211.46 145.616C212.168 147.8 213.334 149.808 214.881 151.505C216.427 153.202 218.319 154.549 220.428 155.456C222.537 156.362 224.816 156.808 227.112 156.762C229.944 156.915 232.772 156.403 235.37 155.265C235.811 155.082 236.308 155.081 236.75 155.262C237.192 155.444 237.545 155.793 237.73 156.234C237.915 156.675 237.918 157.172 237.738 157.615C237.559 158.058 237.211 158.412 236.77 158.599C233.729 159.923 230.425 160.531 227.112 160.378Z" fill="#3F3D56"/>
<path d="M208.022 418.805C207.665 418.805 207.315 418.699 207.018 418.501C206.721 418.302 206.489 418.02 206.352 417.689C206.215 417.359 206.179 416.995 206.249 416.645C206.319 416.294 206.491 415.972 206.744 415.719L218.496 403.967C218.836 403.632 219.294 403.445 219.771 403.447C220.249 403.449 220.706 403.639 221.043 403.976C221.381 404.314 221.571 404.771 221.573 405.248C221.574 405.725 221.387 406.184 221.052 406.524L209.301 418.276C209.133 418.444 208.934 418.577 208.714 418.668C208.495 418.759 208.26 418.806 208.022 418.805ZM237.854 414.285C237.496 414.285 237.147 414.179 236.849 413.981C236.552 413.782 236.32 413.5 236.184 413.169C236.047 412.839 236.011 412.475 236.081 412.125C236.15 411.774 236.323 411.452 236.575 411.199L246.519 401.255C246.859 400.92 247.318 400.733 247.795 400.735C248.272 400.737 248.729 400.927 249.067 401.264C249.404 401.602 249.595 402.059 249.596 402.536C249.598 403.013 249.411 403.472 249.076 403.812L239.132 413.756C238.965 413.924 238.765 414.057 238.546 414.148C238.326 414.239 238.091 414.286 237.854 414.285V414.285ZM232.43 414.285C232.192 414.286 231.957 414.239 231.738 414.148C231.518 414.057 231.319 413.924 231.151 413.756L223.92 406.524C223.75 406.356 223.615 406.157 223.522 405.937C223.43 405.717 223.382 405.481 223.381 405.243C223.38 405.004 223.427 404.768 223.517 404.548C223.608 404.327 223.742 404.127 223.911 403.958C224.079 403.789 224.28 403.656 224.5 403.565C224.721 403.474 224.957 403.428 225.195 403.429C225.434 403.429 225.67 403.477 225.89 403.57C226.11 403.662 226.309 403.797 226.476 403.967L233.708 411.199C233.961 411.452 234.133 411.774 234.203 412.125C234.273 412.475 234.237 412.839 234.1 413.169C233.963 413.5 233.732 413.782 233.434 413.981C233.137 414.179 232.787 414.285 232.43 414.285V414.285Z" fill="#3F3D56"/>
<path d="M250.51 404.342C249.616 404.342 248.742 404.076 247.999 403.58C247.255 403.083 246.676 402.377 246.334 401.551C245.992 400.725 245.902 399.817 246.077 398.94C246.251 398.063 246.681 397.258 247.314 396.626C247.946 395.993 248.751 395.563 249.628 395.388C250.505 395.214 251.413 395.304 252.239 395.646C253.065 395.988 253.771 396.567 254.268 397.31C254.764 398.054 255.03 398.928 255.03 399.822C255.028 401.02 254.552 402.169 253.704 403.016C252.857 403.864 251.708 404.34 250.51 404.342V404.342ZM250.51 398.918C250.331 398.918 250.156 398.971 250.007 399.07C249.859 399.169 249.743 399.31 249.674 399.476C249.606 399.641 249.588 399.823 249.623 399.998C249.658 400.173 249.744 400.334 249.87 400.461C249.997 400.587 250.158 400.673 250.333 400.708C250.509 400.743 250.69 400.725 250.856 400.657C251.021 400.588 251.162 400.472 251.261 400.324C251.361 400.175 251.414 400 251.414 399.822C251.413 399.582 251.318 399.352 251.149 399.183C250.979 399.013 250.749 398.918 250.51 398.918V398.918Z" fill="#3F3D56"/>
<path d="M235.142 419.709C234.248 419.709 233.374 419.444 232.631 418.948C231.888 418.451 231.308 417.745 230.966 416.919C230.624 416.093 230.535 415.184 230.709 414.308C230.883 413.431 231.314 412.625 231.946 411.993C232.578 411.361 233.383 410.931 234.26 410.756C235.137 410.582 236.046 410.671 236.872 411.013C237.698 411.356 238.404 411.935 238.9 412.678C239.397 413.421 239.662 414.295 239.662 415.189C239.661 416.388 239.184 417.537 238.337 418.384C237.489 419.231 236.34 419.708 235.142 419.709ZM235.142 414.285C234.963 414.285 234.788 414.338 234.64 414.438C234.491 414.537 234.375 414.678 234.307 414.843C234.238 415.009 234.22 415.19 234.255 415.366C234.29 415.541 234.376 415.702 234.503 415.829C234.629 415.955 234.79 416.041 234.966 416.076C235.141 416.111 235.323 416.093 235.488 416.025C235.653 415.956 235.794 415.84 235.894 415.692C235.993 415.543 236.046 415.368 236.046 415.189C236.046 414.95 235.95 414.72 235.781 414.55C235.611 414.381 235.382 414.286 235.142 414.285V414.285Z" fill="#3F3D56"/>
<path d="M222.486 407.053C221.592 407.053 220.718 406.788 219.975 406.292C219.231 405.795 218.652 405.089 218.31 404.263C217.968 403.437 217.878 402.529 218.053 401.652C218.227 400.775 218.658 399.97 219.29 399.337C219.922 398.705 220.727 398.275 221.604 398.1C222.481 397.926 223.39 398.016 224.215 398.358C225.041 398.7 225.747 399.279 226.244 400.022C226.741 400.766 227.006 401.64 227.006 402.534C227.004 403.732 226.528 404.881 225.68 405.728C224.833 406.575 223.684 407.052 222.486 407.053V407.053ZM222.486 401.63C222.307 401.63 222.132 401.683 221.984 401.782C221.835 401.881 221.719 402.022 221.651 402.188C221.582 402.353 221.564 402.535 221.599 402.71C221.634 402.885 221.72 403.046 221.847 403.173C221.973 403.299 222.134 403.385 222.309 403.42C222.485 403.455 222.667 403.437 222.832 403.369C222.997 403.3 223.138 403.184 223.237 403.036C223.337 402.887 223.39 402.712 223.39 402.534C223.39 402.294 223.294 402.064 223.125 401.895C222.955 401.725 222.725 401.63 222.486 401.63V401.63Z" fill="#3F3D56"/>
<path d="M205.31 424.229C204.416 424.229 203.542 423.964 202.799 423.467C202.056 422.971 201.476 422.265 201.134 421.439C200.792 420.613 200.702 419.704 200.877 418.827C201.051 417.951 201.482 417.145 202.114 416.513C202.746 415.881 203.551 415.451 204.428 415.276C205.305 415.102 206.214 415.191 207.04 415.533C207.866 415.876 208.572 416.455 209.068 417.198C209.565 417.941 209.83 418.815 209.83 419.709C209.829 420.908 209.352 422.056 208.505 422.904C207.657 423.751 206.508 424.228 205.31 424.229V424.229ZM205.31 418.805C205.131 418.805 204.956 418.858 204.808 418.958C204.659 419.057 204.543 419.198 204.475 419.363C204.406 419.528 204.388 419.71 204.423 419.886C204.458 420.061 204.544 420.222 204.671 420.349C204.797 420.475 204.958 420.561 205.134 420.596C205.309 420.631 205.491 420.613 205.656 420.544C205.821 420.476 205.962 420.36 206.062 420.212C206.161 420.063 206.214 419.888 206.214 419.709C206.214 419.47 206.118 419.24 205.949 419.07C205.779 418.901 205.55 418.806 205.31 418.805V418.805Z" fill="#3F3D56"/>
<path d="M376.893 563.653H338.926C337.248 563.651 335.64 562.984 334.454 561.798C333.267 560.611 332.6 559.003 332.598 557.325V530.206C332.6 528.528 333.267 526.92 334.454 525.733C335.64 524.547 337.248 523.88 338.926 523.878H376.893C378.571 523.88 380.18 524.547 381.366 525.733C382.552 526.92 383.219 528.528 383.221 530.206V557.325C383.219 559.003 382.552 560.611 381.366 561.798C380.18 562.984 378.571 563.651 376.893 563.653V563.653ZM338.926 527.494C338.207 527.494 337.518 527.78 337.009 528.289C336.501 528.797 336.215 529.487 336.214 530.206V557.325C336.215 558.044 336.501 558.734 337.009 559.242C337.518 559.75 338.207 560.036 338.926 560.037H376.893C377.613 560.036 378.302 559.75 378.81 559.242C379.319 558.734 379.605 558.044 379.605 557.325V530.206C379.605 529.487 379.319 528.797 378.81 528.289C378.302 527.78 377.613 527.494 376.893 527.494L338.926 527.494Z" fill="#3F3D56"/>
<path d="M357.91 547.381C357.508 547.382 357.117 547.248 356.8 547L340.528 534.345C340.341 534.199 340.184 534.018 340.066 533.811C339.949 533.605 339.873 533.377 339.844 533.142C339.815 532.906 339.832 532.667 339.895 532.438C339.958 532.209 340.065 531.995 340.211 531.808C340.357 531.62 340.538 531.463 340.744 531.346C340.951 531.229 341.178 531.153 341.414 531.124C341.649 531.094 341.888 531.111 342.117 531.174C342.346 531.237 342.561 531.345 342.748 531.49L357.91 543.283L373.072 531.49C373.259 531.345 373.473 531.237 373.702 531.174C373.931 531.111 374.17 531.094 374.406 531.124C374.641 531.153 374.869 531.229 375.075 531.346C375.282 531.463 375.463 531.62 375.609 531.808C375.754 531.995 375.862 532.209 375.925 532.438C375.988 532.667 376.005 532.906 375.976 533.142C375.946 533.377 375.871 533.605 375.753 533.811C375.636 534.018 375.479 534.199 375.292 534.345L359.02 547C358.703 547.248 358.312 547.382 357.91 547.381V547.381Z" fill="#3F3D56"/>
<path d="M561.835 588.682L352.693 588.765C352.428 588.765 352.174 588.66 351.986 588.473C351.799 588.285 351.693 588.031 351.693 587.765C351.693 587.5 351.799 587.246 351.986 587.058C352.174 586.871 352.428 586.765 352.693 586.765L561.835 586.682C562.1 586.682 562.354 586.788 562.542 586.975C562.729 587.163 562.835 587.417 562.835 587.682C562.835 587.948 562.729 588.202 562.542 588.39C562.354 588.577 562.1 588.682 561.835 588.682Z" fill="#CCCCCC"/>
<path d="M556.835 320.683L345.693 320.765C345.428 320.765 345.174 320.66 344.986 320.473C344.799 320.285 344.693 320.031 344.693 319.765C344.693 319.5 344.799 319.246 344.986 319.058C345.174 318.871 345.428 318.765 345.693 318.765L556.835 318.683C557.1 318.683 557.354 318.788 557.542 318.975C557.729 319.163 557.835 319.417 557.835 319.683C557.835 319.948 557.729 320.202 557.542 320.39C557.354 320.577 557.1 320.683 556.835 320.683Z" fill="#CCCCCC"/>
<path d="M16.2676 183.683L227.409 183.765C227.674 183.765 227.928 183.66 228.116 183.473C228.304 183.285 228.409 183.031 228.409 182.765C228.409 182.5 228.304 182.246 228.116 182.058C227.928 181.871 227.674 181.765 227.409 181.765L16.2676 181.683C16.0024 181.683 15.748 181.788 15.5605 181.975C15.3729 182.163 15.2676 182.417 15.2676 182.683C15.2676 182.948 15.3729 183.202 15.5605 183.39C15.748 183.577 16.0024 183.683 16.2676 183.683V183.683Z" fill="#CCCCCC"/>
<path d="M14.0513 197.682C21.7833 197.682 28.0513 191.414 28.0513 183.682C28.0513 175.951 21.7833 169.682 14.0513 169.682C6.31928 169.682 0.0512695 175.951 0.0512695 183.682C0.0512695 191.414 6.31928 197.682 14.0513 197.682Z" fill="#F50057"/>
<path d="M16.2676 454.683L227.409 454.765C227.674 454.765 227.928 454.66 228.116 454.473C228.304 454.285 228.409 454.031 228.409 453.765C228.409 453.5 228.304 453.246 228.116 453.058C227.928 452.871 227.674 452.765 227.409 452.765L16.2676 452.683C16.0024 452.683 15.748 452.788 15.5605 452.975C15.3729 453.163 15.2676 453.417 15.2676 453.683C15.2676 453.948 15.3729 454.202 15.5605 454.39C15.748 454.577 16.0024 454.683 16.2676 454.683V454.683Z" fill="#CCCCCC"/>
<path d="M14.0513 468.683C21.7833 468.683 28.0513 462.415 28.0513 454.683C28.0513 446.951 21.7833 440.683 14.0513 440.683C6.31928 440.683 0.0512695 446.951 0.0512695 454.683C0.0512695 462.415 6.31928 468.683 14.0513 468.683Z" fill="#F50057"/>
<path d="M357.91 588.765C349.01 588.765 340.309 586.126 332.909 581.182C325.509 576.237 319.741 569.209 316.335 560.986C312.929 552.764 312.038 543.716 313.774 534.986C315.511 526.257 319.797 518.239 326.09 511.946C332.383 505.652 340.401 501.366 349.131 499.63C357.86 497.894 366.908 498.785 375.13 502.191C383.353 505.597 390.381 511.365 395.326 518.765C400.27 526.165 402.91 534.865 402.91 543.765C402.896 555.696 398.151 567.134 389.715 575.57C381.278 584.006 369.84 588.752 357.91 588.765V588.765ZM357.91 500.765C349.405 500.765 341.091 503.287 334.02 508.012C326.949 512.737 321.437 519.453 318.183 527.31C314.928 535.167 314.077 543.813 315.736 552.154C317.395 560.496 321.49 568.157 327.504 574.171C333.518 580.185 341.18 584.28 349.521 585.939C357.862 587.598 366.508 586.747 374.365 583.492C382.222 580.238 388.938 574.726 393.663 567.655C398.388 560.584 400.91 552.27 400.91 543.765C400.897 532.365 396.362 521.435 388.301 513.374C380.24 505.313 369.31 500.778 357.91 500.765V500.765Z" fill="#CCCCCC"/>
<path d="M227.91 454.765C219.01 454.765 210.309 452.126 202.909 447.182C195.509 442.237 189.741 435.209 186.335 426.986C182.929 418.763 182.038 409.715 183.774 400.986C185.511 392.257 189.797 384.239 196.09 377.946C202.383 371.652 210.401 367.366 219.131 365.63C227.86 363.894 236.908 364.785 245.13 368.191C253.353 371.597 260.381 377.365 265.326 384.765C270.27 392.165 272.91 400.865 272.91 409.765C272.896 421.696 268.151 433.134 259.715 441.57C251.278 450.006 239.84 454.752 227.91 454.765ZM227.91 366.765C219.405 366.765 211.091 369.287 204.02 374.012C196.949 378.737 191.437 385.453 188.183 393.31C184.928 401.167 184.077 409.813 185.736 418.154C187.395 426.496 191.49 434.157 197.504 440.171C203.518 446.185 211.18 450.28 219.521 451.939C227.862 453.598 236.508 452.747 244.365 449.492C252.222 446.238 258.938 440.726 263.663 433.655C268.388 426.584 270.91 418.27 270.91 409.765C270.897 398.365 266.362 387.435 258.301 379.374C250.24 371.313 239.31 366.778 227.91 366.765V366.765Z" fill="#CCCCCC"/>
<path d="M348.91 320.765C340.01 320.765 331.309 318.126 323.909 313.182C316.509 308.237 310.741 301.209 307.335 292.986C303.929 284.763 303.038 275.715 304.774 266.986C306.511 258.257 310.797 250.239 317.09 243.946C323.383 237.652 331.401 233.366 340.131 231.63C348.86 229.894 357.908 230.785 366.13 234.191C374.353 237.597 381.381 243.365 386.326 250.765C391.27 258.165 393.91 266.865 393.91 275.765C393.896 287.696 389.151 299.134 380.715 307.57C372.278 316.006 360.84 320.752 348.91 320.765V320.765ZM348.91 232.765C340.405 232.765 332.091 235.287 325.02 240.012C317.949 244.737 312.437 251.453 309.183 259.31C305.928 267.167 305.077 275.813 306.736 284.154C308.395 292.495 312.49 300.157 318.504 306.171C324.518 312.185 332.18 316.28 340.521 317.939C348.862 319.598 357.508 318.747 365.365 315.492C373.222 312.238 379.938 306.726 384.663 299.655C389.388 292.584 391.91 284.27 391.91 275.765C391.897 264.365 387.362 253.435 379.301 245.374C371.24 237.313 360.31 232.778 348.91 232.765V232.765Z" fill="#CCCCCC"/>
<path d="M228.91 183.683C220.01 183.683 211.309 181.043 203.909 176.099C196.509 171.154 190.741 164.126 187.335 155.903C183.929 147.681 183.038 138.633 184.774 129.903C186.511 121.174 190.797 113.156 197.09 106.863C203.383 100.569 211.401 96.2835 220.131 94.5472C228.86 92.8108 237.908 93.702 246.13 97.1079C254.353 100.514 261.381 106.282 266.326 113.682C271.27 121.082 273.91 129.782 273.91 138.683C273.896 150.613 269.151 162.051 260.715 170.487C252.278 178.924 240.84 183.669 228.91 183.683V183.683ZM228.91 95.6825C220.405 95.6825 212.091 98.2044 205.02 102.929C197.949 107.654 192.437 114.37 189.183 122.227C185.928 130.084 185.077 138.73 186.736 147.071C188.395 155.413 192.49 163.074 198.504 169.088C204.518 175.102 212.18 179.197 220.521 180.856C228.862 182.515 237.508 181.664 245.365 178.409C253.222 175.155 259.938 169.643 264.663 162.572C269.388 155.501 271.91 147.187 271.91 138.683C271.897 127.282 267.362 116.352 259.301 108.291C251.24 100.23 240.31 95.6954 228.91 95.6825Z" fill="#CCCCCC"/>
<path d="M334.405 302.202C333.953 302.2 333.508 302.085 333.112 301.868C332.715 301.651 332.379 301.338 332.134 300.958C331.889 300.579 331.742 300.144 331.707 299.693C331.672 299.242 331.751 298.79 331.935 298.377L335.064 291.396C330.752 287.566 328.006 282.28 327.352 276.55C326.698 270.82 328.182 265.051 331.519 260.348C334.857 255.645 339.813 252.34 345.438 251.067C351.062 249.793 356.959 250.64 361.997 253.446C367.035 256.252 370.86 260.819 372.738 266.272C374.616 271.724 374.416 277.678 372.175 282.991C369.934 288.305 365.81 292.604 360.595 295.065C355.379 297.525 349.439 297.974 343.913 296.324L335.927 301.73C335.479 302.037 334.948 302.201 334.405 302.202V302.202ZM350.551 253.935C346.391 253.933 342.334 255.224 338.941 257.631C335.548 260.038 332.988 263.441 331.616 267.368C330.244 271.295 330.127 275.551 331.282 279.547C332.437 283.544 334.807 287.081 338.063 289.67L339.049 290.457L335.682 297.969L343.408 292.738L344.171 292.994C346.927 293.92 349.851 294.236 352.741 293.919C355.631 293.602 358.417 292.661 360.907 291.161C363.397 289.66 365.531 287.636 367.16 285.229C368.79 282.821 369.877 280.088 370.346 277.219C370.815 274.35 370.654 271.413 369.875 268.613C369.095 265.812 367.717 263.214 365.834 260.999C363.951 258.784 361.608 257.005 358.97 255.785C356.331 254.566 353.458 253.934 350.551 253.935V253.935Z" fill="#3F3D56"/>
<path d="M350.551 276.161C352.348 276.161 353.804 274.704 353.804 272.908C353.804 271.112 352.348 269.656 350.551 269.656C348.755 269.656 347.299 271.112 347.299 272.908C347.299 274.704 348.755 276.161 350.551 276.161Z" fill="#3F3D56"/>
<path d="M341.336 276.161C343.132 276.161 344.588 274.704 344.588 272.908C344.588 271.112 343.132 269.656 341.336 269.656C339.539 269.656 338.083 271.112 338.083 272.908C338.083 274.704 339.539 276.161 341.336 276.161Z" fill="#3F3D56"/>
<path d="M359.767 276.161C361.563 276.161 363.019 274.704 363.019 272.908C363.019 271.112 361.563 269.656 359.767 269.656C357.97 269.656 356.514 271.112 356.514 272.908C356.514 274.704 357.97 276.161 359.767 276.161Z" fill="#3F3D56"/>
</svg>
