<svg width="520" height="332" viewBox="0 0 520 332" fill="none" xmlns="http://www.w3.org/2000/svg">
<path d="M0.929932 331.972H498.31C501.158 331.972 503.979 331.411 506.611 330.321C509.242 329.231 511.633 327.634 513.647 325.62C515.662 323.605 517.259 321.214 518.349 318.583C519.439 315.951 520 313.13 520 310.282V22.662C520.004 20.7398 519.748 18.8258 519.24 16.972C517.992 12.377 515.266 8.32054 511.484 5.4288C507.701 2.53707 503.071 0.970895 498.31 0.972047H304.04C299.508 8.60597 296.715 17.1454 295.86 25.982C293.45 51.672 308.18 75.422 321.36 97.612C334.54 119.802 347.11 145.602 340.13 170.452C335.41 187.212 322.62 199.342 306.75 206.612C291.501 213.36 274.727 215.915 258.16 214.012C248.21 212.755 238.409 210.518 228.9 207.332C216.43 203.282 204.25 198.032 192.09 192.722C192.08 192.722 192.08 192.722 192.07 192.712C191.86 192.622 191.64 192.522 191.43 192.432C182.02 188.322 172.62 184.202 163.08 180.572C151.902 176.201 140.299 173.003 128.46 171.032C110.47 168.212 92.3299 169.232 76.2799 177.392C50.1199 190.682 36.0999 219.402 25.1299 246.622C14.0499 274.142 4.11993 302.582 0.929932 331.972Z" fill="#F50057"/>
</svg>
