<svg width="799" height="648" viewBox="0 0 799 648" fill="none" xmlns="http://www.w3.org/2000/svg">
<g clip-path="url(#clip0_70_987)">
<path d="M126.832 0L74.02 103.009H84.681V187.009H30.953L0 247.381L383.53 444.017L510.363 196.636L126.832 0Z" fill="#F2F2F2"/>
<path d="M703.681 67.0087H115.681V362.009H703.681V67.0087Z" fill="white"/>
<path opacity="0.3" d="M632.181 173.009H198.181V174.009H632.181V173.009Z" fill="#F50057"/>
<path opacity="0.3" d="M632.681 198.009H198.681V199.009H632.681V198.009Z" fill="#F50057"/>
<path opacity="0.3" d="M632.681 248.009H198.681V249.009H632.681V248.009Z" fill="#F50057"/>
<path opacity="0.3" d="M632.681 270.009H198.681V271.009H632.681V270.009Z" fill="#F50057"/>
<path opacity="0.3" d="M632.681 223.009H198.681V224.009H632.681V223.009Z" fill="#F50057"/>
<path d="M566.681 647.009C669.406 647.009 752.681 639.397 752.681 630.009C752.681 620.62 669.406 613.009 566.681 613.009C463.956 613.009 380.681 620.62 380.681 630.009C380.681 639.397 463.956 647.009 566.681 647.009Z" fill="#3F3D56"/>
<path d="M210.722 270.733L209.342 269.285L273.943 207.712L330.889 248.674L376.94 197.618L397.133 214.782L452.062 181.824L513.076 222.833L608.837 168.364L609.825 170.102L512.988 225.184L452.002 184.193L396.931 217.235L377.124 200.399L331.175 251.343L274.121 210.305L210.722 270.733Z" fill="#F50057"/>
<path d="M396.757 595.846C401.457 613.22 417.555 623.98 417.555 623.98C417.555 623.98 426.033 606.572 421.333 589.198C416.633 571.824 400.535 561.064 400.535 561.064C400.535 561.064 392.057 578.473 396.757 595.846Z" fill="#3F3D56"/>
<path d="M403.663 592.113C416.56 604.667 418.135 623.966 418.135 623.966C418.135 623.966 398.8 622.911 385.904 610.356C373.007 597.802 371.432 578.502 371.432 578.502C371.432 578.502 390.766 579.558 403.663 592.113Z" fill="#F50057"/>
<path opacity="0.4" d="M765.181 87.0087C783.683 87.0087 798.681 72.0102 798.681 53.5087C798.681 35.0071 783.683 20.0087 765.181 20.0087C746.68 20.0087 731.681 35.0071 731.681 53.5087C731.681 72.0102 746.68 87.0087 765.181 87.0087Z" fill="#F50057"/>
<path opacity="0.4" d="M703.181 93.0087C716.16 93.0087 726.681 82.4874 726.681 69.5087C726.681 56.53 716.16 46.0087 703.181 46.0087C690.202 46.0087 679.681 56.53 679.681 69.5087C679.681 82.4874 690.202 93.0087 703.181 93.0087Z" fill="#F50057"/>
<path opacity="0.4" d="M674.181 513.009C681.085 513.009 686.681 507.412 686.681 500.509C686.681 493.605 681.085 488.009 674.181 488.009C667.278 488.009 661.681 493.605 661.681 500.509C661.681 507.412 667.278 513.009 674.181 513.009Z" fill="#F50057"/>
<path opacity="0.4" d="M461.181 575.009C466.428 575.009 470.681 570.755 470.681 565.509C470.681 560.262 466.428 556.009 461.181 556.009C455.934 556.009 451.681 560.262 451.681 565.509C451.681 570.755 455.934 575.009 461.181 575.009Z" fill="#F50057"/>
<path opacity="0.4" d="M429.181 452.009C436.085 452.009 441.681 446.412 441.681 439.509C441.681 432.605 436.085 427.009 429.181 427.009C422.278 427.009 416.681 432.605 416.681 439.509C416.681 446.412 422.278 452.009 429.181 452.009Z" fill="#F50057"/>
<path d="M608.181 186.509C615.361 186.509 621.181 180.688 621.181 173.509C621.181 166.329 615.361 160.509 608.181 160.509C601.001 160.509 595.181 166.329 595.181 173.509C595.181 180.688 601.001 186.509 608.181 186.509Z" fill="#F50057"/>
<path d="M523.714 408.974L512.693 410.199C512.693 410.199 507.795 432.24 512.693 461.628C517.591 491.016 523.714 520.404 523.714 520.404C523.714 520.404 528.612 615.915 531.061 617.139C533.51 618.364 555.551 625.711 556.776 618.364C558 611.017 558 443.26 558 443.26L575.143 524.077C575.143 524.077 577.592 625.711 582.49 625.711C587.388 625.711 603.307 624.486 603.307 615.915C603.307 607.343 606.98 494.689 606.98 494.689C606.98 494.689 605.756 411.423 600.858 408.974C595.96 406.525 523.714 408.974 523.714 408.974Z" fill="#2F2E41"/>
<path d="M533.51 613.466C533.51 613.466 522.489 612.241 520.04 613.466C517.591 614.69 513.918 623.262 520.04 628.16C526.163 633.058 542.081 640.405 546.979 640.405C550.376 640.254 553.707 639.421 556.775 637.956L554.326 617.139L533.51 613.466Z" fill="#2F2E41"/>
<path d="M582.49 619.588L583.714 636.731C583.714 636.731 599.633 639.18 600.857 636.731C602.082 634.282 614.327 628.16 615.551 626.935C616.776 625.711 618 612.242 610.653 611.017C603.306 609.792 600.857 613.466 600.857 613.466L582.49 619.588Z" fill="#2F2E41"/>
<path d="M479.632 306.116C479.632 306.116 450.244 334.28 453.917 348.974C457.591 363.668 486.979 406.525 486.979 406.525C486.979 406.525 515.142 421.219 518.816 406.525C522.489 391.831 499.224 395.505 499.224 395.505L480.856 351.423L501.673 322.035L479.632 306.116Z" fill="#FFB8B8"/>
<path d="M610.945 263.269C610.945 263.269 637.717 246.053 637.097 234.226C636.477 222.398 620.339 185.106 620.339 185.106C620.339 185.106 607.713 158.857 602.694 169.584C597.675 180.312 609.291 191.731 609.291 191.731L616.788 228.313L596.412 247.752L610.945 263.269Z" fill="#FFB8B8"/>
<path d="M544.53 238.769C556.703 238.769 566.571 228.901 566.571 216.728C566.571 204.555 556.703 194.687 544.53 194.687C532.357 194.687 522.489 204.555 522.489 216.728C522.489 228.901 532.357 238.769 544.53 238.769Z" fill="#FFB8B8"/>
<path d="M533.51 230.197L537.183 253.463L564.122 248.565C564.122 248.565 562.898 225.299 562.898 222.85C562.898 220.401 533.51 230.197 533.51 230.197Z" fill="#FFB8B8"/>
<path d="M532.285 253.463C532.285 253.463 562.898 246.116 566.571 248.565C570.245 251.014 588.612 253.463 588.612 253.463L609.429 285.3L603.306 325.708C603.306 325.708 602.082 390.607 604.531 401.627C606.98 412.648 620.449 413.872 592.286 416.321C564.122 418.77 559.224 415.097 539.632 419.995C520.04 424.893 504.122 417.546 509.02 412.648C513.918 407.75 522.489 329.382 512.693 322.035C502.897 314.688 499.224 276.728 499.224 276.728C499.224 276.728 532.285 259.585 532.285 253.463Z" fill="#D0CDE1"/>
<path d="M584.939 257.136L588.612 253.463L595.959 246.116C595.959 246.116 619.837 256.524 618.613 260.197C617.388 263.871 609.429 285.3 609.429 285.3L598.409 288.973L584.939 257.136Z" fill="#D0CDE1"/>
<path d="M513.918 279.177L499.224 276.728C499.224 276.728 488.203 288.973 484.53 293.871C480.856 298.769 473.509 311.014 473.509 311.014L499.224 329.382L518.816 308.565L513.918 279.177Z" fill="#D0CDE1"/>
<path d="M552.222 190.025L551.996 188.259C550.498 188.251 549.008 188.485 547.585 188.952C547.44 187.888 547.533 186.804 547.857 185.779C546.411 186.151 545.033 186.75 543.775 187.555L542.884 184.332L530.643 190.365C526.249 192.531 521.616 194.91 519.104 199.116C516.304 203.805 516.791 209.831 518.705 214.945C520.62 220.06 523.801 224.587 526.351 229.417C527.319 231.493 528.482 233.473 529.825 235.33C534.445 241.09 543.44 242.253 549.954 238.777C552.433 237.583 554.409 235.549 555.532 233.037C556.007 231.479 556.379 229.891 556.646 228.284C557.452 224.992 558.388 218.198 561.061 216.115C562.237 215.199 564.57 218.237 565.545 217.108C568.05 214.209 567.524 209.737 565.968 206.235C564.475 202.718 562.729 199.313 560.745 196.047C559.904 194.734 552.195 189.813 552.222 190.025Z" fill="#2F2E41"/>
<path d="M76.6811 115.009H12.6812V179.009H76.6811V115.009Z" fill="#3F3D56"/>
</g>
<defs>
<clipPath id="clip0_70_987">
<rect width="798.681" height="647.009" fill="white"/>
</clipPath>
</defs>
</svg>
