<svg width="1073" height="767" viewBox="0 0 1073 767" fill="none" xmlns="http://www.w3.org/2000/svg">
<path opacity="0.1" d="M1054.17 609.33C1027.61 664.14 973.65 700.79 917.75 724.96C872.994 744.184 825.684 756.809 777.3 762.44C768.033 763.54 758.737 764.393 749.41 765C725.578 766.553 701.669 766.527 677.84 764.92C663.507 763.967 649.223 762.443 634.99 760.35C585.534 753.135 537.318 739.095 491.72 718.63C478.56 712.703 465.667 706.233 453.04 699.22C431.95 687.531 411.743 674.316 392.58 659.68C388.34 656.44 384.153 653.13 380.02 649.75L378.32 648.36C375.07 645.68 371.85 642.94 368.58 640.28C363.145 635.727 357.375 631.589 351.32 627.9C350.91 627.66 350.5 627.42 350.08 627.19C348.96 626.54 347.82 625.93 346.66 625.35C344.27 624.145 341.82 623.064 339.32 622.11C327.77 617.71 315.4 616.11 302.86 616.38C300.78 616.38 298.7 616.52 296.61 616.66C293.69 616.86 290.76 617.16 287.84 617.54L286.76 617.69C277.455 619.007 268.255 620.982 259.23 623.6C245.29 627.6 231.6 632.6 217.82 637.11C211.97 639.04 206.11 640.88 200.2 642.53L198.9 642.89C190.495 645.254 181.938 647.045 173.29 648.25C153.638 650.763 133.677 649.155 114.68 643.53L114.02 643.34L112.8 642.98L111.13 642.46C108.33 641.58 105.553 640.617 102.8 639.57L101.13 638.93C98.4634 637.903 95.8534 636.8 93.3 635.62L91.6301 634.86C88.9634 633.62 86.3534 632.31 83.8 630.93C82.88 630.45 81.97 629.93 81.07 629.44C78.35 627.92 75.6834 626.327 73.07 624.66C70.2967 622.893 67.5834 621.05 64.93 619.13C63.7034 618.25 62.49 617.347 61.29 616.42C54.3725 611.129 47.8947 605.287 41.92 598.95C41.59 598.62 41.28 598.28 40.97 597.95C39.38 596.23 37.82 594.48 36.31 592.69C35.75 592.03 35.19 591.37 34.64 590.69C32.8467 588.503 31.1167 586.267 29.45 583.98C29.2 583.65 28.96 583.31 28.72 582.98C21.8874 573.531 16.2229 563.29 11.85 552.48C11.71 552.15 11.58 551.81 11.46 551.48C10.1267 548.047 8.91004 544.557 7.81004 541.01C7.36004 539.53 6.93004 538.01 6.55004 536.53C6.42004 536.09 6.30004 535.64 6.19004 535.2C0.670037 513.47 0.0400391 490.88 0.0400391 468.42C0.0400391 465.8 0.0400391 463.183 0.0400391 460.57C0.200039 424.24 0.760037 387.29 6.12004 351.46C6.12004 351.21 6.19004 350.96 6.23004 350.72C8.024 338.658 10.4642 326.701 13.54 314.9C16.7592 302.518 20.8734 290.386 25.85 278.6C38.18 249.6 56.1101 223.21 76.0201 198.75C100.02 169.32 127.52 142.16 158.15 119.75C162.55 116.53 167.01 113.403 171.53 110.37L173.62 109C174.35 108.51 175.08 108 175.81 107.57C177.31 106.57 178.81 105.63 180.33 104.68L182.03 103.62L185.27 101.62L186.27 101.05L188 100.05L189.71 99.0501C191.71 97.8701 193.733 96.7168 195.78 95.5901C204.52 90.7168 213.467 86.2635 222.62 82.2301C225.32 81.0368 228.037 79.8868 230.77 78.7801C243.18 73.726 255.927 69.5458 268.92 66.2701C273.72 65.0568 278.55 63.9901 283.41 63.0701C289.143 61.9635 294.907 61.0468 300.7 60.3201C309.919 59.1602 319.191 58.4693 328.48 58.2501C393.8 56.6601 459.78 77.9201 510.97 118.67C531.37 134.91 549.7 154.14 572.61 166.59C592.61 177.43 616.02 181.92 637.44 173.39C655.14 166.34 666.66 162.84 686.54 163.91C727.677 166.227 768.232 174.709 806.85 189.07C808.41 189.64 809.97 190.23 811.52 190.82C912.23 229.37 998.82 305.92 1043.8 404.29C1044.99 406.89 1046.14 409.51 1047.27 412.15C1074.1 474.8 1083.78 548.25 1054.17 609.33Z" fill="#F50057"/>
<path opacity="0.1" d="M200.17 263.39V642.55L198.87 642.91C190.464 645.274 181.908 647.065 173.26 648.27C153.607 650.782 133.647 649.175 114.65 643.55L113.99 643.36L112.77 643L111.1 642.48C108.3 641.6 105.523 640.637 102.77 639.59L101.1 638.95C98.4331 637.923 95.8231 636.82 93.2698 635.64L91.5998 634.88C88.9331 633.64 86.3231 632.33 83.7698 630.95C82.8498 630.47 81.9398 629.95 81.0398 629.46C78.3198 627.94 75.6531 626.347 73.0398 624.68C70.2664 622.913 67.5531 621.07 64.8998 619.15C63.6731 618.27 62.4598 617.367 61.2598 616.44C54.3422 611.149 47.8644 605.307 41.8898 598.97C41.5598 598.64 41.2498 598.3 40.9398 597.97C39.3498 596.25 37.7898 594.5 36.2798 592.71C35.7198 592.05 35.1598 591.39 34.6098 590.71C32.8164 588.523 31.0864 586.287 29.4198 584C29.1698 583.67 28.9298 583.33 28.6898 583C21.8571 573.551 16.1927 563.31 11.8198 552.5C11.6798 552.17 11.5498 551.83 11.4298 551.5C10.0964 548.067 8.87977 544.577 7.77977 541.03C7.32977 539.55 6.89976 538.03 6.51976 536.55C6.38976 536.11 6.26976 535.66 6.15976 535.22C0.639763 513.49 0.00976562 490.9 0.00976562 468.44C0.00976562 465.82 0.00976562 463.203 0.00976562 460.59C0.169766 424.26 0.729764 387.31 6.08976 351.48C6.08976 351.23 6.15976 350.98 6.19976 350.74C7.99373 338.678 10.4339 326.721 13.5098 314.92H115.63V263.39H135.99V222H179.81V263.39H200.17Z" fill="#F50057"/>
<path opacity="0.1" d="M6.1001 350.75V366.75H112.77V350.75H6.1001ZM15.6001 365.75H7.7701V351.75H15.6001V365.75ZM25.1001 365.75H17.2701V351.75H25.1001V365.75ZM34.6001 365.75H26.7701V351.75H34.6001V365.75ZM44.1001 365.75H36.2701V351.75H44.1001V365.75ZM53.6001 365.75H45.7701V351.75H53.6001V365.75ZM63.1001 365.75H55.2701V351.75H63.1001V365.75ZM72.6001 365.75H64.7701V351.75H72.6001V365.75ZM82.1001 365.75H74.2701V351.75H82.1001V365.75ZM91.6001 365.75H83.7701V351.75H91.6001V365.75ZM101.1 365.75H93.2701V351.75H101.1V365.75ZM111.1 365.75H102.77V351.75H111.1V365.75Z" fill="#F50057"/>
<path opacity="0.1" d="M6.1001 397.21V413.16H112.77V397.21H6.1001ZM15.6001 412.16H7.7701V398.21H15.6001V412.16ZM25.1001 412.16H17.2701V398.21H25.1001V412.16ZM34.6001 412.16H26.7701V398.21H34.6001V412.16ZM44.1001 412.16H36.2701V398.21H44.1001V412.16ZM53.6001 412.16H45.7701V398.21H53.6001V412.16ZM63.1001 412.16H55.2701V398.21H63.1001V412.16ZM72.6001 412.16H64.7701V398.21H72.6001V412.16ZM82.1001 412.16H74.2701V398.21H82.1001V412.16ZM91.6001 412.16H83.7701V398.21H91.6001V412.16ZM101.1 412.16H93.2701V398.21H101.1V412.16ZM111.1 412.16H102.77V398.21H111.1V412.16Z" fill="#F50057"/>
<path opacity="0.1" d="M6.1001 443.66V459.61H112.77V443.66H6.1001ZM15.6001 458.61H7.7701V444.66H15.6001V458.61ZM25.1001 458.61H17.2701V444.66H25.1001V458.61ZM34.6001 458.61H26.7701V444.66H34.6001V458.61ZM44.1001 458.61H36.2701V444.66H44.1001V458.61ZM53.6001 458.61H45.7701V444.66H53.6001V458.61ZM63.1001 458.61H55.2701V444.66H63.1001V458.61ZM72.6001 458.61H64.7701V444.66H72.6001V458.61ZM82.1001 458.61H74.2701V444.66H82.1001V458.61ZM91.6001 458.61H83.7701V444.66H91.6001V458.61ZM101.1 458.61H93.2701V444.66H101.1V458.61ZM111.1 458.61H102.77V444.66H111.1V458.61Z" fill="#F50057"/>
<path opacity="0.1" d="M6.1001 490.07V506.07H112.77V490.07H6.1001ZM15.6001 505.07H7.7701V491.07H15.6001V505.07ZM25.1001 505.07H17.2701V491.07H25.1001V505.07ZM34.6001 505.07H26.7701V491.07H34.6001V505.07ZM44.1001 505.07H36.2701V491.07H44.1001V505.07ZM53.6001 505.07H45.7701V491.07H53.6001V505.07ZM63.1001 505.07H55.2701V491.07H63.1001V505.07ZM72.6001 505.07H64.7701V491.07H72.6001V505.07ZM82.1001 505.07H74.2701V491.07H82.1001V505.07ZM91.6001 505.07H83.7701V491.07H91.6001V505.07ZM101.1 505.07H93.2701V491.07H101.1V505.07ZM111.1 505.07H102.77V491.07H111.1V505.07Z" fill="#F50057"/>
<path opacity="0.1" d="M6.50977 536.56C6.88977 538.06 7.31977 539.56 7.76977 541.04V537.56H15.5998V551.56H11.4198C11.5398 551.89 11.6698 552.23 11.8098 552.56H112.81V536.56H6.50977ZM25.0998 551.56H17.2698V537.56H25.0998V551.56ZM34.5998 551.56H26.7698V537.56H34.5998V551.56ZM44.0998 551.56H36.2698V537.56H44.0998V551.56ZM53.5998 551.56H45.7698V537.56H53.5998V551.56ZM63.0998 551.56H55.2698V537.56H63.0998V551.56ZM72.5998 551.56H64.7698V537.56H72.5998V551.56ZM82.0998 551.56H74.2698V537.56H82.0998V551.56ZM91.5998 551.56H83.7698V537.56H91.5998V551.56ZM101.1 551.56H93.2698V537.56H101.1V551.56ZM111.1 551.56H102.77V537.56H111.1V551.56Z" fill="#F50057"/>
<path opacity="0.1" d="M28.6802 583.01C28.9202 583.34 29.1602 583.68 29.4102 584.01H34.6002V590.72C35.1502 591.39 35.7102 592.05 36.2702 592.72V584.02H44.1002V598.02H40.9302C41.2402 598.35 41.5502 598.69 41.8802 599.02H112.77V583.02L28.6802 583.01ZM53.6002 598.01H45.7702V584.01H53.6002V598.01ZM63.1002 598.01H55.2702V584.01H63.1002V598.01ZM72.6002 598.01H64.7702V584.01H72.6002V598.01ZM82.1002 598.01H74.2702V584.01H82.1002V598.01ZM91.6002 598.01H83.7702V584.01H91.6002V598.01ZM101.1 598.01H93.2702V584.01H101.1V598.01ZM111.1 598.01H102.77V584.01H111.1V598.01Z" fill="#F50057"/>
<path opacity="0.1" d="M81.04 629.46C81.94 629.97 82.8501 630.46 83.7701 630.95V630.46H91.6V634.88L93.2701 635.64V630.46H101.1V638.95L102.77 639.59V630.46H111.1V642.46L112.77 642.98V629.46H81.04Z" fill="#F50057"/>
<path opacity="0.1" d="M409.96 212.24C409.96 212.24 386.12 210.8 388.96 227.5C388.814 228.349 388.941 229.222 389.322 229.994C389.703 230.767 390.318 231.399 391.08 231.8C391.08 231.8 391.08 230.56 393.52 230.98C394.376 231.121 395.245 231.161 396.11 231.1C397.28 231.023 398.393 230.567 399.28 229.8V229.8C399.28 229.8 405.98 227.03 408.59 216.08C408.59 216.08 410.51 213.69 410.44 213.08L406.44 214.8C406.44 214.8 407.82 217.7 406.74 220.11C406.74 220.11 406.61 214.91 405.83 215.03C405.68 215.03 403.74 216.03 403.74 216.03C403.74 216.03 406.11 221.09 404.32 224.76C404.32 224.76 405 218.54 403.01 216.4L400.11 218.07C400.11 218.07 402.88 223.29 401 227.55C401 227.55 401.49 221.02 399.52 218.48L396.95 220.48C396.95 220.48 399.55 225.62 397.95 229.16C397.95 229.16 397.74 221.55 396.38 220.97C395.404 221.793 394.534 222.733 393.79 223.77C393.79 223.77 395.57 227.5 394.47 229.47C394.47 229.47 393.79 224.41 393.23 224.38C393.23 224.38 391 227.74 390.77 230.04C390.873 227.906 391.535 225.837 392.69 224.04C391.402 224.284 390.213 224.899 389.27 225.81C389.27 225.81 389.62 223.44 393.27 223.23C393.27 223.23 395.12 220.69 395.62 220.53C395.62 220.53 392.01 220.23 389.82 221.2C389.82 221.2 391.75 218.96 396.28 219.98L398.81 217.91C398.81 217.91 394.06 217.26 392.05 217.98C392.05 217.98 394.36 215.98 399.49 217.44L402.25 215.79C400.13 215.326 397.959 215.138 395.79 215.23C395.79 215.23 398.33 213.86 403.06 215.35L405.06 214.46C405.06 214.46 402.06 213.88 401.23 213.79C400.4 213.7 400.31 213.46 400.31 213.46C402.188 213.147 404.117 213.362 405.88 214.08C405.88 214.08 410.03 212.5 409.96 212.24Z" fill="#F50057"/>
<path opacity="0.1" d="M347.38 293.51C347.38 293.51 339.23 315.95 356.05 318C356.82 318.379 357.69 318.505 358.536 318.359C359.382 318.214 360.16 317.804 360.76 317.19C360.76 317.19 359.59 316.8 360.67 314.61C361.048 313.832 361.337 313.013 361.53 312.17C361.783 311.024 361.656 309.828 361.17 308.76V308.76C361.17 308.76 360.42 301.55 350.66 295.94C350.66 295.94 348.92 293.41 348.31 293.31L348.81 297.66C348.81 297.66 351.98 297.16 353.99 298.88C353.99 298.88 348.99 297.53 348.86 298.31C348.86 298.46 349.23 300.6 349.23 300.6C349.23 300.6 354.75 299.76 357.76 302.52C357.76 302.52 351.98 300.1 349.37 301.41L350.15 304.59C350.15 304.59 355.94 303.43 359.49 306.43C359.49 306.43 353.37 304.12 350.37 305.28L351.56 308.28C351.56 308.28 357.23 307.28 360.17 309.77C360.17 309.77 352.81 307.77 351.88 308.95C352.392 310.114 353.043 311.212 353.82 312.22C353.82 312.22 357.91 311.58 359.48 313.22C359.48 313.22 354.43 312.43 354.25 312.95C354.25 312.95 356.84 316.05 358.98 316.95C356.97 316.239 355.181 315.015 353.79 313.4C353.657 314.708 353.911 316.025 354.52 317.19C354.52 317.19 352.34 316.19 353.17 312.64C353.17 312.64 351.25 310.15 351.25 309.64C351.25 309.64 349.93 313.01 350.25 315.39C350.25 315.39 348.65 312.9 350.91 308.85L349.65 305.85C349.65 305.85 347.65 310.22 347.79 312.36C347.79 312.36 346.55 309.57 349.39 305.06L348.6 301.95C347.553 303.839 346.757 305.856 346.23 307.95C346.23 307.95 345.63 305.12 348.4 301.01L348.11 298.87C348.11 298.87 346.71 301.55 346.38 302.36C346.05 303.17 345.8 303.14 345.8 303.14C346.03 301.249 346.781 299.459 347.97 297.97C347.97 297.97 347.65 293.51 347.38 293.51Z" fill="#F50057"/>
<path opacity="0.1" d="M505.41 274.59C505.41 274.59 497.27 297.07 514.08 299.07C514.852 299.448 515.725 299.573 516.573 299.426C517.421 299.278 518.2 298.867 518.8 298.25C518.8 298.25 517.62 297.86 518.71 295.68C519.091 294.901 519.377 294.078 519.56 293.23C519.816 292.085 519.693 290.889 519.21 289.82C519.21 289.82 518.46 282.61 508.7 277C508.7 277 506.95 274.48 506.34 274.38L506.85 278.72C506.85 278.72 510.02 278.23 512.03 279.95C512.03 279.95 507.03 278.6 506.89 279.37C506.89 279.53 507.26 281.66 507.26 281.66C507.26 281.66 512.78 280.83 515.8 283.58C515.8 283.58 510.02 281.17 507.4 282.47L508.19 285.66C508.19 285.66 513.98 284.49 517.53 287.5C517.53 287.5 511.4 285.18 508.4 286.34L509.59 289.34C509.59 289.34 515.26 288.34 518.2 290.83C518.2 290.83 510.85 288.83 509.91 290.02C510.438 291.189 511.11 292.287 511.91 293.29C511.91 293.29 515.99 292.64 517.57 294.29C517.57 294.29 512.52 293.5 512.34 294.03C512.34 294.03 514.92 297.12 517.06 298.03C515.051 297.322 513.265 296.097 511.88 294.48C511.747 295.786 511.997 297.103 512.6 298.27C512.6 298.27 510.43 297.27 511.26 293.73C511.26 293.73 509.34 291.23 509.33 290.73C509.33 290.73 508.02 294.11 508.33 296.48C508.33 296.48 506.73 294 508.99 289.94L507.73 286.94C507.73 286.94 505.73 291.31 505.87 293.44C505.87 293.44 504.63 290.66 507.47 286.15L506.67 283.03C505.623 284.919 504.827 286.936 504.3 289.03C504.3 289.03 503.71 286.2 506.48 282.09L506.19 279.95C506.19 279.95 504.79 282.63 504.45 283.44C504.11 284.25 503.87 284.22 503.87 284.22C504.107 282.329 504.861 280.54 506.05 279.05C506.05 279.05 505.69 274.6 505.41 274.59Z" fill="#F50057"/>
<path opacity="0.1" d="M279.51 458.07C279.51 458.07 271.36 480.52 288.18 482.57C288.951 482.949 289.822 483.074 290.669 482.927C291.515 482.779 292.293 482.367 292.89 481.75C292.89 481.75 291.72 481.36 292.8 479.18C293.185 478.401 293.473 477.578 293.66 476.73C293.918 475.585 293.792 474.386 293.3 473.32V473.32C293.3 473.32 292.55 466.11 282.79 460.51C282.79 460.51 281.05 457.98 280.44 457.88L280.94 462.22C280.94 462.22 284.12 461.73 286.12 463.45C286.12 463.45 281.12 462.1 280.99 462.87C280.99 463.03 281.36 465.16 281.36 465.16C281.36 465.16 286.88 464.33 289.89 467.08C289.89 467.08 284.11 464.67 281.5 465.97L282.28 469.16C282.28 469.16 288.07 467.99 291.62 471C291.62 471 285.5 468.68 282.5 469.84L283.69 472.84C283.69 472.84 289.36 471.84 292.3 474.33C292.3 474.33 284.95 472.33 284.01 473.52C284.522 474.684 285.174 475.782 285.95 476.79C285.95 476.79 290.04 476.14 291.62 477.79C291.62 477.79 286.56 477 286.38 477.53C286.38 477.53 288.97 480.62 291.11 481.53C289.1 480.824 287.311 479.604 285.92 477.99C285.788 479.294 286.042 480.609 286.65 481.77C286.65 481.77 284.47 480.77 285.3 477.23C285.3 477.23 283.39 474.73 283.38 474.23C283.38 474.23 282.06 477.61 282.38 479.98C282.38 479.98 280.78 477.5 283.04 473.44L281.78 470.44C281.78 470.44 279.78 474.81 279.93 476.94C279.93 476.94 278.69 474.16 281.53 469.65L280.73 466.54C279.682 468.428 278.885 470.445 278.36 472.54C278.36 472.54 277.76 469.7 280.53 465.6L280.24 463.45C280.24 463.45 278.84 466.13 278.51 466.94C278.18 467.75 277.93 467.72 277.93 467.72C278.161 465.827 278.916 464.037 280.11 462.55C280.11 462.55 279.78 458.07 279.51 458.07Z" fill="#F50057"/>
<path opacity="0.1" d="M247.17 246.48C247.17 246.48 239.03 268.92 255.84 270.97C256.612 271.348 257.484 271.474 258.331 271.328C259.178 271.183 259.958 270.774 260.56 270.16C260.56 270.16 259.38 269.77 260.47 267.58C260.847 266.799 261.132 265.977 261.32 265.13C261.576 263.989 261.453 262.795 260.97 261.73C260.97 261.73 260.22 254.52 250.45 248.91C250.45 248.91 248.71 246.38 248.1 246.28L248.61 250.63C248.61 250.63 251.78 250.13 253.78 251.85C253.78 251.85 248.78 250.5 248.65 251.28C248.65 251.43 249.02 253.57 249.02 253.57C249.02 253.57 254.54 252.73 257.56 255.49C257.56 255.49 251.78 253.07 249.16 254.38L249.94 257.56C249.94 257.56 255.73 256.39 259.29 259.4C259.29 259.4 253.16 257.08 250.16 258.25L251.35 261.25C251.35 261.25 257.02 260.25 259.96 262.75C259.96 262.75 252.61 260.75 251.67 261.93C252.182 263.094 252.834 264.192 253.61 265.2C253.61 265.2 257.7 264.56 259.28 266.2C259.28 266.2 254.23 265.41 254.05 265.93C254.05 265.93 256.63 269.03 258.77 269.93C256.762 269.216 254.973 267.993 253.58 266.38C253.448 267.688 253.701 269.005 254.31 270.17C254.31 270.17 252.13 269.17 252.97 265.62C252.97 265.62 251.05 263.13 251.04 262.62C251.04 262.62 249.73 265.99 250.04 268.37C250.04 268.37 248.43 265.88 250.7 261.83L249.43 258.83C249.43 258.83 247.43 263.2 247.58 265.34C247.58 265.34 246.34 262.55 249.18 258.04L248.38 254.93C247.333 256.819 246.537 258.836 246.01 260.93C246.01 260.93 245.42 258.1 248.18 253.99L247.9 251.85C247.9 251.85 246.49 254.53 246.16 255.33C245.83 256.13 245.58 256.12 245.58 256.12C245.811 254.227 246.566 252.437 247.76 250.95C247.76 250.95 247.45 246.48 247.17 246.48Z" fill="#F50057"/>
<path opacity="0.1" d="M307.61 368.68C307.61 368.68 313.9 391.68 328.82 383.68C329.668 383.545 330.451 383.145 331.058 382.538C331.665 381.931 332.065 381.148 332.2 380.3C332.2 380.3 331.02 380.66 330.65 378.25C330.509 377.394 330.267 376.559 329.93 375.76C329.487 374.674 328.695 373.767 327.68 373.18C327.68 373.18 322.91 367.72 311.68 368.76C311.68 368.76 308.8 367.71 308.24 367.98L311.16 371.23C311.16 371.23 313.47 369 316.1 369.23C316.1 369.23 311.21 371.03 311.57 371.72C311.65 371.86 313.19 373.38 313.19 373.38C313.19 373.38 317.19 369.51 321.27 370.02C321.27 370.02 315.16 371.38 313.78 373.96L316.25 376.11C316.25 376.11 320.31 371.82 324.95 372.22C324.95 372.22 318.6 373.86 316.82 376.54L319.54 378.33C319.54 378.33 323.54 374.22 327.44 374.59C327.44 374.59 320.3 377.22 320.19 378.7C321.282 379.357 322.451 379.877 323.67 380.25C323.67 380.25 326.67 377.37 328.86 377.78C328.86 377.78 324.27 380.05 324.43 380.58C324.43 380.58 328.33 381.58 330.58 381.1C328.531 381.681 326.366 381.715 324.3 381.2C324.943 382.344 325.91 383.273 327.08 383.87C327.08 383.87 324.72 384.3 323.36 380.93C323.36 380.93 320.36 380 320.04 379.58C320.04 379.58 320.92 383.1 322.54 384.86C322.54 384.86 319.8 383.75 319.31 379.13L316.54 377.4C316.54 377.4 317.45 382.11 318.77 383.78C318.77 383.78 316.15 382.22 315.87 376.9L313.43 374.82C313.667 376.978 314.185 379.096 314.97 381.12C314.97 381.12 312.86 379.12 312.75 374.2L311.28 372.61C311.28 372.61 311.68 375.61 311.87 376.46C312.06 377.31 311.87 377.46 311.87 377.46C310.969 375.78 310.554 373.883 310.67 371.98C310.67 371.98 307.84 368.53 307.61 368.68Z" fill="#F50057"/>
<path opacity="0.1" d="M478.25 389.22C478.25 389.22 484.54 412.22 499.45 404.22C500.3 404.088 501.087 403.69 501.696 403.083C502.305 402.475 502.706 401.69 502.84 400.84C502.84 400.84 501.65 401.2 501.28 398.84C501.147 397.984 500.908 397.147 500.57 396.35C500.12 395.266 499.326 394.359 498.31 393.77V393.77C498.31 393.77 493.54 388.31 482.31 389.36C482.31 389.36 479.43 388.3 478.88 388.57L481.79 391.82C481.79 391.82 484.1 389.59 486.73 389.82C486.73 389.82 481.84 391.62 482.21 392.31C482.28 392.45 483.83 393.97 483.83 393.97C483.83 393.97 487.83 390.1 491.91 390.61C491.91 390.61 485.79 391.97 484.41 394.55L486.89 396.7C486.89 396.7 490.89 392.41 495.58 392.81C495.58 392.81 489.24 394.45 487.46 397.13L490.18 398.92C490.18 398.92 494.18 394.81 498.07 395.18C498.07 395.18 490.93 397.81 490.83 399.29C491.919 399.947 493.084 400.468 494.3 400.84C494.3 400.84 497.3 397.96 499.49 398.37C499.49 398.37 494.91 400.64 495.06 401.17C495.06 401.17 498.96 402.17 501.22 401.69C499.168 402.27 497 402.305 494.93 401.79C495.577 402.932 496.543 403.86 497.71 404.46C497.71 404.46 495.35 404.89 493.99 401.52C493.99 401.52 490.99 400.59 490.68 400.17C490.68 400.17 491.55 403.69 493.17 405.45C493.17 405.45 490.43 404.34 489.94 399.72L487.17 397.97C487.17 397.97 488.08 402.68 489.41 404.35C489.41 404.35 486.79 402.79 486.51 397.47L484.06 395.39C484.297 397.549 484.818 399.667 485.61 401.69C485.61 401.69 483.49 399.69 483.38 394.77L481.91 393.18C481.91 393.18 482.31 396.18 482.5 397.03C482.69 397.88 482.5 398.03 482.5 398.03C481.599 396.35 481.184 394.453 481.3 392.55C481.3 392.55 478.48 389.07 478.25 389.22Z" fill="#F50057"/>
<path d="M414.23 620.2C414.23 620.2 466.11 602.73 455.37 540.83L389.47 523.72L374.17 574.51L414.23 620.2Z" fill="#CED7E7"/>
<path opacity="0.1" d="M374.17 574.51L414.22 620.2C414.22 620.2 466.1 602.73 455.36 540.83L374.17 574.51Z" fill="black"/>
<path d="M156.17 117.21C156.17 117.21 163.17 128.6 172.74 122.91C182.31 117.22 173.13 101.5 173.13 101.5C173.13 101.5 154.8 98.9899 156.17 117.21Z" fill="#FED253"/>
<path opacity="0.1" d="M172.74 122.91C171.611 123.64 170.345 124.132 169.019 124.356C167.694 124.58 166.336 124.53 165.03 124.21C161.52 123.32 158.82 120.62 157.37 118.85C156.938 118.331 156.537 117.787 156.17 117.22C155.68 110.72 157.7 106.85 160.5 104.57C164.35 101.44 169.68 101.31 171.98 101.41C172.69 101.41 173.1 101.51 173.1 101.51L173.29 101.83C173.56 102.34 174.15 103.47 174.78 104.98C176.92 109.93 179.47 118.9 172.74 122.91Z" fill="black"/>
<path d="M419.33 537.92L455.33 540.83L522.33 541.38L469.54 606.38C469.54 606.38 452.79 607.29 449.34 609.65C445.89 612.01 397.45 610.75 397.45 610.75L389.63 577.43L419.33 537.92Z" fill="#FFA2A2"/>
<path opacity="0.05" d="M419.33 537.92L455.33 540.83L522.33 541.38L469.54 606.38C469.54 606.38 452.79 607.29 449.34 609.65C445.89 612.01 397.45 610.75 397.45 610.75L389.63 577.43L419.33 537.92Z" fill="black"/>
<path d="M382.92 363.16L391.29 377.36L393.11 402.12C393.11 402.12 398.94 423.23 403.31 429.42C407.68 435.61 409.5 452 409.5 452C409.5 452 411.32 467.29 413.5 470.56C415.68 473.83 418.6 497.56 418.6 497.56C418.6 497.56 437.9 536.15 455.37 540.88C455.37 540.88 368.72 569.28 414.23 620.25C414.23 620.25 381.83 628.25 374.18 619.16C366.53 610.07 346.51 475.35 346.51 475.35L352.7 361.75L382.92 363.16Z" fill="#CED7E7"/>
<path opacity="0.05" d="M382.92 363.16L391.29 377.36L393.11 402.12C393.11 402.12 398.94 423.23 403.31 429.42C407.68 435.61 409.5 452 409.5 452C409.5 452 411.32 467.29 413.5 470.56C415.68 473.83 418.6 497.56 418.6 497.56C418.6 497.56 437.9 536.15 455.37 540.88C455.37 540.88 368.72 569.28 414.23 620.25C414.23 620.25 381.83 628.25 374.18 619.16C366.53 610.07 346.51 475.35 346.51 475.35L352.7 361.75L382.92 363.16Z" fill="black"/>
<path d="M277.79 224.77C275.359 237.384 276.08 250.402 279.89 262.67L266.41 301.26C266.41 301.26 163.74 244.1 172.48 230.26C177.43 222.41 178.06 201.64 177.66 185.14C177.37 172.6 176.48 162.54 176.48 162.54C176.48 162.54 302.48 174.93 285.71 203.69C281.915 210.227 279.238 217.351 277.79 224.77V224.77Z" fill="#FFA2A2"/>
<path opacity="0.1" d="M285.71 203.69C281.915 210.227 279.238 217.351 277.79 224.77C259.091 230.752 238.898 230.073 220.643 222.848C202.389 215.623 187.2 202.299 177.66 185.14C177.37 172.6 176.48 162.54 176.48 162.54C176.48 162.54 302.45 174.93 285.71 203.69Z" fill="black"/>
<path d="M336.68 141.79C336.689 155.139 333.547 168.301 327.512 180.207C321.476 192.113 312.716 202.427 301.943 210.311C291.171 218.194 278.69 223.424 265.516 225.576C252.342 227.728 238.846 226.74 226.125 222.694C213.405 218.648 201.818 211.658 192.307 202.291C182.797 192.924 175.631 181.445 171.392 168.788C167.153 156.13 165.96 142.651 167.911 129.445C169.862 116.24 174.902 103.681 182.62 92.7901C183.82 91.1034 185.083 89.4567 186.41 87.8501C193.969 78.6623 203.376 71.1668 214.02 65.8501V65.8501C219.795 62.961 225.886 60.7529 232.17 59.2701C243.518 56.5818 255.297 56.2572 266.775 58.3166C278.253 60.376 289.185 64.7752 298.89 71.2407C308.596 77.7061 316.867 86.0994 323.189 95.8985C329.511 105.698 333.749 116.693 335.64 128.2C336.346 132.695 336.694 137.24 336.68 141.79Z" fill="#FFA2A2"/>
<path d="M370.17 490.6C368.9 497.38 370.49 509.77 372.9 522.38C373 522.93 373.11 523.48 373.22 524.03C373.33 524.58 373.49 525.43 373.63 526.12C374.74 531.54 375.95 536.91 377.13 541.79C378.31 546.67 379.37 550.85 380.27 554.29C381.63 559.44 382.56 562.68 382.56 562.68C382.56 562.68 382.68 565.86 382.84 570.92C382.93 573.84 383.03 577.4 383.13 581.33C383.13 582.47 383.2 583.63 383.23 584.83C383.28 586.92 383.33 589.09 383.38 591.31C383.38 592.03 383.38 592.75 383.43 593.48C383.43 595.87 383.52 598.31 383.56 600.74C383.61 604.08 383.65 607.42 383.67 610.66C383.67 611.9 383.67 613.12 383.67 614.32C383.67 617.42 383.67 620.39 383.67 623.12C383.56 630.87 383.25 636.72 382.59 638.41C382.36 638.99 382.15 639.62 381.95 640.28C381.083 643.384 380.454 646.55 380.07 649.75L378.37 648.36C375.12 645.68 371.9 642.94 368.63 640.28C363.195 635.727 357.425 631.589 351.37 627.9C350.96 627.66 350.55 627.42 350.13 627.19C349.01 626.54 347.87 625.93 346.71 625.35C344.32 624.145 341.87 623.064 339.37 622.11C327.82 617.71 315.45 616.11 302.91 616.38C297.91 618.29 294.66 619.66 294.66 619.66L288.3 621.58L287.24 621.9C280.35 624 270.66 626.98 267.17 628.22C261.53 630.22 212.56 640.41 212.56 640.41C208.086 641.631 203.516 642.468 198.9 642.91C190.494 645.274 181.938 647.065 173.29 648.27C153.637 650.782 133.677 649.175 114.68 643.55C114.113 643.584 113.544 643.567 112.98 643.5C113.33 643.5 113.67 643.42 113.98 643.36L112.76 643L111.09 642.48C108.29 641.6 105.513 640.637 102.76 639.59L101.09 638.95C98.4233 637.923 95.8133 636.82 93.26 635.64L91.59 634.88C88.9233 633.64 86.3133 632.33 83.76 630.95C82.84 630.47 81.93 629.95 81.03 629.46C78.31 627.94 75.6433 626.347 73.03 624.68C72.59 620.91 72.36 618.39 72.36 618.39L68.46 598.97L68.26 597.97L65.46 583.97L65.26 582.97L59.17 552.51L58.97 551.51L56.17 537.51L55.97 536.51L49.8 506.07L49.6 505.07L46.8 491.07L46.6 490.07L40.48 459.57L40.28 458.57L37.48 444.62L37.28 443.62L36.17 438.12L34.5 429.79C34.5 429.79 29.17 422.17 23.17 413.16L22.5 412.16C20.79 409.63 19.03 407 17.32 404.42C16.75 403.57 16.2 402.73 15.65 401.9C14.8167 400.64 14.01 399.41 13.23 398.21L12.69 397.38L12.58 397.21C3.95999 383.87 9.72998 378.07 9.72998 378.07C9.72998 378.07 13.35 373.17 18.02 366.69C18.25 366.36 18.49 366.03 18.74 365.69C20.74 362.89 22.94 359.83 25.1 356.77L26.77 354.39C27.4 353.5 28.02 352.61 28.62 351.73C28.86 351.4 29.09 351.06 29.31 350.73C33.92 344.07 37.72 338.26 38.5 336.2C39.72 332.95 47.5 323.34 55.25 314.91C61.36 308.25 67.44 302.33 70.17 300.91C76.36 297.64 78.91 287.07 78.91 287.07C78.91 287.07 92.38 282.35 94.2 278.71C96.02 275.07 121.51 258.71 121.51 258.71C121.51 258.71 131.82 252.07 135.99 248.07C136.58 247.547 137.095 246.945 137.52 246.28C138.97 243.68 148.44 241.54 152.29 240.77C153.29 240.57 153.91 240.46 153.91 240.46C155.464 237.636 157.429 235.058 159.74 232.81C161.31 231.42 163.27 226.63 164.92 221.99C166.71 216.93 168.1 212.06 168.1 212.06C171.02 202.23 176.84 205.14 176.84 205.14C176.832 206.483 176.959 207.823 177.22 209.14C179.65 221.14 192.85 226.14 199.78 231.75C207.43 237.93 219.44 253.96 228.91 257.23C236.75 259.94 245.84 270.16 248.72 273.57L248.94 273.83C249.42 274.39 249.66 274.71 249.66 274.71C249.66 274.71 255.03 274.43 258.3 274.37H259.49C260.155 274.303 260.787 274.046 261.31 273.63C264.56 271.42 269.4 264.94 271.51 263.45C274.05 261.62 276.61 232.13 276.61 232.13L276.74 232.07C285.81 227.82 295.54 270.36 295.54 270.36C295.54 270.36 312.65 275.46 314.11 279.1C314.39 279.82 315.68 281.1 317.62 282.65C326.453 289.401 335.855 295.373 345.72 300.5C345.94 300.61 346.15 300.72 346.37 300.81C346.568 300.917 346.772 301.014 346.98 301.1C347.35 301.28 347.71 301.44 348.05 301.59C348.59 301.83 349.09 302.03 349.55 302.19L350.15 302.4C351.583 302.877 352.933 303.575 354.15 304.47C354.51 304.73 354.87 305 355.22 305.29C356.582 306.423 357.834 307.682 358.96 309.05C359.13 309.25 359.29 309.46 359.45 309.66C360.21 310.61 360.89 311.55 361.45 312.42C362.369 313.762 363.207 315.158 363.96 316.6C363.96 316.6 378.88 342.09 383.62 344.99C388.36 347.89 391.27 377.4 391.27 377.4L375.27 436.71C375.27 436.71 374.52 451.71 373.12 467.01C372.34 475.59 371.35 484.32 370.17 490.6Z" fill="#CED7E7"/>
<path d="M249.66 276.51C249.66 276.51 238.93 282.33 230.55 282.88C229.453 282.931 228.354 282.868 227.27 282.69C218.49 281.36 205.61 274.14 205.61 274.14L220.72 257.57L239.1 266.68L245.86 272.97L249.66 276.51Z" fill="#63667E"/>
<path opacity="0.1" d="M335.6 128.2C335.22 128.738 334.788 129.237 334.31 129.69C329.05 134.69 319.71 132.62 312.54 131.46C306.309 130.441 300.223 128.682 294.41 126.22C289.35 124.06 283.28 121.42 278.73 124.52C276.98 125.7 275.78 127.59 273.96 128.63C272.14 129.67 269.82 129.74 267.67 129.77C260.67 129.77 253.67 129.85 246.84 128.27C236.65 125.89 226.11 119.9 216.42 123.85C208.84 126.93 204.73 135.18 202.68 143.11C201.68 147 200.94 151.11 198.68 154.41C196.42 157.71 192.05 160.05 188.33 158.5C182.84 156.21 182.03 146.89 175.41 146.42C168.14 145.91 168.23 153.42 170.35 158.85C173.49 166.85 177.6 174.85 177.78 183.19C169.967 169.196 166.275 153.275 167.131 137.271C167.988 121.266 173.358 105.831 182.62 92.7501C184.232 91.7519 185.493 90.2771 186.23 88.5301C186.304 88.2938 186.364 88.0534 186.41 87.8101C186.96 85.0201 185.41 82.0901 185.32 79.1701C184.97 72.0401 192.69 67.0701 199.77 66.1701C204.48 65.5701 209.3 66.0301 214.02 65.8801C216.397 65.8277 218.762 65.5124 221.07 64.9401C225.052 63.7469 228.78 61.8317 232.07 59.2901C243.417 56.6018 255.197 56.2772 266.675 58.3366C278.153 60.396 289.085 64.7952 298.79 71.2607C308.495 77.7261 316.766 86.1194 323.089 95.9185C329.411 105.718 333.649 116.713 335.54 128.22L335.6 128.2Z" fill="black"/>
<path d="M337.31 122.31C336.812 124.288 335.773 126.088 334.31 127.51C329.05 132.51 319.71 130.43 312.54 129.27C306.309 128.274 300.222 126.528 294.41 124.07C289.35 121.92 283.28 119.28 278.73 122.38C276.98 123.56 275.78 125.45 273.96 126.49C272.14 127.53 269.82 127.6 267.67 127.62C260.67 127.67 253.67 127.71 246.84 126.13C236.65 123.74 226.11 117.76 216.42 121.7C208.84 124.78 204.73 133.04 202.68 140.97C201.68 144.86 200.94 148.97 198.68 152.26C196.42 155.55 192.05 157.91 188.33 156.36C182.84 154.07 182.03 144.75 175.41 144.28C168.14 143.77 168.23 151.28 170.35 156.71C174.07 166.18 179.13 175.6 177.47 185.64C175.82 185.64 173.09 185.58 171.47 185.54C172.73 183.39 170.33 180.83 167.94 180.1C165.55 179.37 162.76 179.38 160.94 177.64C159.12 175.9 159.11 173.21 159.3 170.8C159.715 165.649 160.975 160.602 163.03 155.86C164.34 152.86 166.03 149.61 165.03 146.47C164.43 145.047 163.707 143.678 162.87 142.38C160.79 138.38 161.28 133.38 163.06 129.25C163.82 127.49 164.37 125.83 165 124.25C165.796 122.004 166.947 119.901 168.41 118.02C170.7 115.17 172.94 110.88 170.41 108.23C169.77 107.56 171.05 107.1 170.64 106.23C170.568 106.082 170.517 105.923 170.49 105.76C170.373 104.707 170.627 103.645 171.21 102.76C171.328 102.53 171.458 102.306 171.6 102.09C171.715 101.862 171.846 101.641 171.99 101.43C174.205 97.733 177.147 94.5246 180.64 92.0001C182.81 90.4301 185.35 88.9201 186.21 86.3801C187.21 83.3801 185.45 80.1901 185.3 77.0201C184.95 69.8901 192.67 64.9201 199.75 64.0201C206.83 63.1201 214.17 64.6101 221.07 62.7801C230.86 60.2001 237.74 51.5601 246.63 46.7101C251.494 44.1097 256.887 42.6551 262.398 42.4576C267.91 42.26 273.393 43.3246 278.43 45.5701C288.81 50.3101 296.64 59.8901 307.48 63.4901C311.32 64.7701 315.48 65.2801 318.94 67.4001C322.94 69.8601 325.37 74.1601 327.45 78.4001C330.62 84.8301 331.26 91.2901 333.45 98.1001C335.19 103.5 337.6 110.56 337.8 116.78C337.913 118.638 337.747 120.501 337.31 122.31V122.31Z" fill="#896363"/>
<g opacity="0.1">
<path opacity="0.1" d="M171.71 109.78C171.87 109.14 171.886 108.472 171.756 107.826C171.626 107.179 171.354 106.569 170.96 106.04C171.22 106.82 170.09 107.27 170.71 107.92C171.204 108.439 171.549 109.082 171.71 109.78Z" fill="black"/>
<path opacity="0.1" d="M170.93 103.75C170.812 104.099 170.741 104.462 170.72 104.83C170.91 104.51 171.17 104.18 170.93 103.75Z" fill="black"/>
<path opacity="0.1" d="M334.59 125.07C329.32 130.07 319.99 128 312.8 126.83C306.573 125.828 300.492 124.071 294.69 121.6C289.62 119.44 283.56 116.8 279 119.9C277.26 121.08 276.06 122.97 274.23 124.01C272.4 125.05 270.09 125.12 267.94 125.14C260.94 125.14 253.94 125.23 247.1 123.64C236.92 121.26 226.38 115.29 216.69 119.22C209.11 122.31 205 130.56 202.95 138.49C201.95 142.38 201.22 146.49 198.95 149.79C196.68 153.09 192.31 155.43 188.6 153.89C183.11 151.59 182.3 142.28 175.68 141.81C170.51 141.44 169.07 145.14 169.42 149.25C169.72 146.11 171.42 143.69 175.68 143.99C182.3 144.46 183.11 153.78 188.6 156.07C192.31 157.62 196.69 155.29 198.95 151.97C201.21 148.65 201.95 144.56 202.95 140.68C205 132.75 209.11 124.49 216.69 121.41C226.38 117.47 236.92 123.41 247.1 125.83C253.9 127.42 260.96 127.37 267.94 127.32C270.09 127.32 272.36 127.26 274.23 126.2C276.1 125.14 277.23 123.27 279 122.08C283.56 118.99 289.62 121.63 294.69 123.78C300.493 126.25 306.574 128.009 312.8 129.02C319.99 130.18 329.32 132.27 334.59 127.25C337.45 124.52 338.31 120.57 338.12 116.25C337.96 119.68 336.96 122.79 334.59 125.07Z" fill="black"/>
<path opacity="0.1" d="M185.65 75.21C185.595 75.7079 185.575 76.2092 185.59 76.71C185.69 78.79 186.48 80.87 186.73 82.9C187.1 80.41 185.95 77.81 185.65 75.21Z" fill="black"/>
<path opacity="0.1" d="M165.33 146.16C165.412 146.459 165.476 146.763 165.52 147.07C165.682 146.038 165.617 144.984 165.33 143.98C164.734 142.551 164.011 141.179 163.17 139.88C162.419 138.401 161.973 136.785 161.86 135.13C161.657 137.519 162.11 139.919 163.17 142.07C164.013 143.365 164.736 144.734 165.33 146.16Z" fill="black"/>
<path opacity="0.1" d="M177.74 183.14L171.89 183.05C172.026 183.403 172.081 183.783 172.05 184.161C172.019 184.538 171.903 184.904 171.71 185.23C173.36 185.23 176.1 185.29 177.71 185.33C177.99 183.618 178.087 181.882 178 180.15C177.977 181.151 177.89 182.15 177.74 183.14Z" fill="black"/>
<path opacity="0.1" d="M168.17 177.61C165.78 176.89 163 176.88 161.22 175.13C160.172 173.984 159.581 172.493 159.56 170.94C159.41 173.24 159.56 175.72 161.22 177.32C163 179.07 165.78 179.08 168.17 179.8C168.948 180.026 169.671 180.409 170.295 180.925C170.919 181.441 171.431 182.079 171.8 182.8C172.81 180.73 170.49 178.3 168.17 177.61Z" fill="black"/>
</g>
<path opacity="0.1" d="M350.1 627.19C348.98 626.54 347.84 625.93 346.68 625.35C344.29 624.145 341.84 623.064 339.34 622.11C327.79 617.71 315.42 616.11 302.88 616.38C297.88 618.29 294.63 619.66 294.63 619.66L288.27 621.58L287.21 621.9C287.14 621.2 287.06 620.5 286.99 619.79C286.92 619.08 286.84 618.4 286.76 617.7C284.52 596.49 282.76 574.7 282.76 574.7V555.88V553.69L282.64 498.24L281.64 479.96L281.17 471.87L281.08 470.33L280.9 467.17L280.8 465.29C280.579 464.694 280.392 464.087 280.24 463.47C280.17 463.22 280.1 462.94 280.04 462.65C279.79 461.65 279.52 460.36 279.24 458.96C277.41 449.76 275.12 434.25 274.98 431.1C274.8 426.9 271.16 401.78 271.16 401.78C270.79 387.95 259.16 361.91 256.23 357C253.3 352.09 250.03 322.59 251.13 321C251.7 320.15 252.07 315.12 252.3 310.48C252.3 309.95 252.35 309.43 252.37 308.92C252.52 305.29 252.59 302.26 252.59 302.26L264.03 300L267.1 299.4L267.34 299.35L267.44 299.55C267.77 300.16 268.8 302.11 270.01 304.67C270.15 304.94 270.28 305.23 270.42 305.52C270.48 305.66 270.55 305.8 270.62 305.94C272.86 310.84 275.45 317.29 275.34 321C275.16 327.56 282.63 343.4 282.63 343.4C283.35 347.04 299.19 383.26 299.19 383.26C299.19 383.26 312.12 418.76 311.39 424.59C310.66 430.42 317.58 469.01 317.58 469.01L324.68 508.7C328.13 516.52 332.68 534.54 332.68 534.54L334.41 544.76L334.74 546.71L339.35 573.98L341.61 587.34C341.61 587.34 342.56 594.44 344 602.34C344.12 603.05 344.26 603.77 344.4 604.49C345.287 609.69 346.547 614.82 348.17 619.84C348.975 622.245 349.619 624.7 350.1 627.19V627.19Z" fill="black"/>
<path d="M351.34 627.9C350.93 627.66 350.52 627.42 350.1 627.19C348.98 626.54 347.84 625.93 346.68 625.35C344.29 624.145 341.84 623.064 339.34 622.11C327.79 617.71 315.42 616.11 302.88 616.38C297.88 618.29 294.63 619.66 294.63 619.66L288.27 621.58C288.19 620.88 288.12 620.18 288.04 619.47C287.96 618.76 287.9 618.19 287.84 617.55C285.6 596.39 283.84 574.7 283.84 574.7V555.7V553.51L283.72 498.2L282.72 480.74L282.52 477.12L282.38 474.67L282.2 471.43L282.02 468.14L281.89 465.77V465.25C281.89 465.2 281.89 465.14 281.82 465.08C281.63 464.54 281.4 463.72 281.15 462.68L281.03 462.18C280.98 461.95 280.92 461.7 280.87 461.45C278.99 452.92 276.23 434.53 276.08 431.08C275.9 426.88 272.26 401.76 272.26 401.76C271.89 387.93 260.26 361.89 257.33 356.98C254.4 352.07 251.14 322.57 252.23 320.98C252.86 319.98 253.23 313.91 253.47 308.9C253.47 308.5 253.47 308.11 253.47 307.74C253.6 304.65 253.65 302.24 253.65 302.24L264.29 300.14L266.99 299.61L267.41 299.53L268.41 299.33C268.41 299.33 269.72 301.75 271.29 305.08L271.49 305.5C273.78 310.44 276.49 317.16 276.41 320.98C276.23 327.54 283.7 343.38 283.7 343.38C284.42 347.02 300.26 383.24 300.26 383.24C300.26 383.24 313.19 418.74 312.46 424.57C311.73 430.4 318.65 468.99 318.65 468.99L325.75 508.68C329.2 516.5 333.75 534.52 333.75 534.52L335.36 544.04L335.69 545.97L339.32 567.49L342.67 587.32C342.67 587.32 343.67 594.39 345.05 602.32C345.18 603.04 345.31 603.76 345.45 604.49C346.336 609.714 347.595 614.867 349.22 619.91C350.106 622.522 350.815 625.192 351.34 627.9V627.9Z" fill="#63667E"/>
<path d="M342.32 114.31C342.32 114.31 338.5 119.23 335.05 119.23C331.6 119.23 318.17 118.68 311.17 116.5C304.17 114.32 269.85 112.67 269.85 112.67C269.85 112.67 221.25 112.85 219.61 111.21C217.97 109.57 189.39 100.83 186.48 101.38C185.87 101.5 184.38 101.76 182.39 102.09L180.11 102.46C176.66 103.01 172.35 103.65 168.41 104.12C163.54 104.69 159.26 104.98 157.9 104.48V100.29C157.9 100.29 163.54 92.09 163.9 89.74C164.26 87.39 169 53.32 181.38 41.13C186.494 31.3531 194.771 23.598 204.86 19.13C221.61 11.84 238.36 5.65997 238.36 5.65997L241.29 5.23997L250.74 3.83997C251.027 3.55401 251.338 3.29306 251.67 3.05997C254.29 1.05997 262.23 -3.29003 272.58 6.05997L274.41 8.97997C274.41 8.97997 306.26 16.44 321 42.47C335.74 68.5 336.48 93.99 337.57 105.64C337.57 105.64 336.84 108.92 338.3 110.19C338.828 110.657 339.332 111.151 339.81 111.67C339.94 111.8 340.07 111.93 340.19 112.07C340.61 112.49 341 112.93 341.32 113.29C341.358 113.318 341.392 113.352 341.42 113.39C341.498 113.485 341.581 113.575 341.67 113.66L342.32 114.31Z" fill="#FED253"/>
<path opacity="0.05" d="M342.32 114.31C342.32 114.31 338.5 119.23 335.05 119.23C331.6 119.23 318.17 118.68 311.17 116.5C304.17 114.32 269.85 112.67 269.85 112.67C269.85 112.67 221.25 112.85 219.61 111.21C217.97 109.57 189.39 100.83 186.48 101.38C185.87 101.5 184.38 101.76 182.39 102.09L181.87 98.89L181.74 98.1C181.74 98.1 236.9 86.27 273.67 92.47C310.44 98.67 337.57 105.57 337.57 105.57C337.57 105.57 336.84 108.85 338.3 110.12C338.829 110.587 339.333 111.081 339.81 111.6C339.94 111.73 340.07 111.86 340.19 112C340.61 112.42 341 112.86 341.32 113.22C341.358 113.248 341.392 113.282 341.42 113.32C341.499 113.415 341.582 113.505 341.67 113.59L342.32 114.31Z" fill="black"/>
<path opacity="0.1" d="M337.31 122.31C330.5 122.84 317.95 121.18 312.46 120.37C310.9 120.14 309.37 119.86 307.83 119.52C301.94 118.24 283.83 114.65 272.83 116.31C259.54 118.31 222.04 114.67 222.04 114.67C222.04 114.67 198.92 109.94 189.63 106.12C186.22 104.71 180.52 104.27 174.85 104.97C173.404 105.15 171.969 105.407 170.55 105.74C162.81 107.57 156.28 111.74 157.41 118.85C156.978 118.331 156.577 117.787 156.21 117.22C155.72 110.72 157.74 106.85 160.54 104.57L161.2 104.3C164.621 103.328 168.102 102.583 171.62 102.07C172.17 101.98 172.74 101.9 173.32 101.83C183.27 100.49 197.66 100.19 209.8 106.3C209.8 106.3 221.08 111.59 228.73 111.59C236.38 111.59 298.63 112.14 313.2 116.32C316.101 117.158 319.059 117.783 322.05 118.19C327.362 118.875 332.76 118.366 337.85 116.7C337.954 118.587 337.772 120.478 337.31 122.31V122.31Z" fill="black"/>
<path opacity="0.1" d="M342.32 114.31C342.32 114.31 338.5 119.23 335.05 119.23C331.6 119.23 318.17 118.68 311.17 116.5C304.17 114.32 269.85 112.67 269.85 112.67C269.85 112.67 221.25 112.85 219.61 111.21C217.97 109.57 189.39 100.83 186.48 101.38C185.87 101.5 184.38 101.76 182.39 102.09L180.11 102.46C176.15 102.44 172.208 102.999 168.41 104.12C163.54 104.69 159.26 104.98 157.9 104.48V103.65C158.948 103.041 160.042 102.513 161.17 102.07C167.918 100.18 174.867 99.0994 181.87 98.85C190.6 98.53 200.81 99.55 209.78 104.07C209.78 104.07 221.06 109.36 228.71 109.36C236.36 109.36 298.61 109.9 313.18 114.09C316.082 114.92 319.039 115.542 322.03 115.95C328.592 116.777 335.256 115.82 341.32 113.18C341.358 113.208 341.392 113.242 341.42 113.28C341.498 113.375 341.582 113.465 341.67 113.55L342.32 114.31Z" fill="black"/>
<path d="M157.55 118.68C157.55 118.68 145.35 109.39 161.19 103.2C161.19 103.2 188.86 94.6501 209.8 105.2C209.8 105.2 221.08 110.47 228.73 110.47C236.38 110.47 298.63 111.02 313.2 115.21C316.102 116.041 319.059 116.663 322.05 117.07C329.802 118.01 337.654 116.518 344.52 112.8C345.52 112.25 346.42 111.97 346.69 112.29C347.6 113.39 346.88 119.76 338.87 121.03C332.62 122.03 318.42 120.14 312.45 119.27C310.9 119.04 309.36 118.75 307.83 118.42C301.94 117.14 283.83 113.55 272.78 115.21C259.5 117.21 221.99 113.57 221.99 113.57C221.99 113.57 198.88 108.84 189.59 105.01C180.3 101.18 154.09 104.48 157.55 118.68Z" fill="#FED253"/>
<path opacity="0.1" d="M218.72 76.26L214.53 82.45L230.55 81.91L230.91 74.99L218.72 76.26Z" fill="black"/>
<path opacity="0.1" d="M316.47 83.73L318.29 89.37L328.49 91.01L324.12 84.27L316.47 83.73Z" fill="black"/>
<path opacity="0.1" d="M141.35 273.07C142.44 274.89 178.3 322.07 187.77 320.76C197.24 319.45 141.35 273.07 141.35 273.07Z" fill="black"/>
<path opacity="0.1" d="M261.5 316.19C261.5 316.19 270.24 324.57 268.96 327.84C267.68 331.11 261.5 316.19 261.5 316.19Z" fill="black"/>
<path opacity="0.1" d="M166.11 373.72C166.11 373.72 158.46 409.58 162.47 410.72C166.48 411.86 166.11 373.72 166.11 373.72Z" fill="black"/>
<path opacity="0.1" d="M264.41 512.98C265.68 516.62 276.24 540.29 278.61 541.56C280.98 542.83 264.41 512.98 264.41 512.98Z" fill="black"/>
<path opacity="0.1" d="M387.11 415.77C386.74 417.04 377.64 424.51 379.64 427.24C381.64 429.97 387.11 415.77 387.11 415.77Z" fill="black"/>
<path opacity="0.1" d="M316.47 482.21C316.29 483.13 314.47 502.21 317.93 505.88C321.39 509.55 316.47 482.21 316.47 482.21Z" fill="black"/>
<path opacity="0.1" d="M409.75 581.33C407.11 582.8 404.38 584.22 401.6 585.58C398.6 587.04 395.6 588.43 392.54 589.74C391.32 590.27 390.1 590.79 388.89 591.29C387.05 592.05 385.23 592.78 383.43 593.48C377.96 595.62 372.69 597.48 368 599.05C366.18 599.66 364.44 600.22 362.82 600.74C354.66 603.33 349.24 604.74 349.24 604.74C348.002 604.475 346.735 604.371 345.47 604.43C345.12 604.43 344.76 604.43 344.39 604.43C342.696 604.553 341.011 604.766 339.34 605.07C328.17 607.07 312.39 612.68 302.88 616.35C297.88 618.26 294.63 619.63 294.63 619.63L288.27 621.55L287.21 621.87C280.32 623.97 270.63 626.95 267.14 628.19C261.5 630.19 212.53 640.38 212.53 640.38C208.056 641.601 203.486 642.438 198.87 642.88C187.495 643.924 176.061 644.184 164.65 643.66C153.19 644.4 134.65 641.88 123.86 640.18L122.14 639.91C117.97 639.23 115.32 638.74 115.32 638.74L116.72 636.81L145.43 597.2L145.6 596.96L172.35 560.07L173.35 558.73L175.78 555.38C175.78 555.38 177.24 553.38 182.86 553.25C183.52 553.25 184.24 553.25 185.03 553.25C189.751 553.63 194.408 554.58 198.9 556.08L200.2 556.47C219.57 562.02 249.51 560.63 249.51 560.63C249.51 560.63 268.14 557.63 282.78 555.83L283.87 555.69C288.654 555.014 293.471 554.597 298.3 554.44C307.22 554.62 326.52 549.89 326.52 549.89C330.67 549 332.42 548.25 334.76 546.58C335.07 546.36 335.4 546.12 335.76 545.86C336.76 545.11 337.91 544.19 339.39 543.05C342.09 540.98 345.88 538.17 351.84 534.23C352.36 533.89 352.91 533.55 353.5 533.23C354.09 532.91 354.84 532.48 355.56 532.12C361.332 529.387 367.417 527.372 373.68 526.12C378.875 525.003 384.146 524.278 389.45 523.95H390.24C405.24 523.15 420.56 525.72 429.52 534.15C431.087 535.632 432.452 537.313 433.58 539.15C434.127 540.023 434.615 540.931 435.04 541.87C435.857 543.661 436.465 545.54 436.85 547.47C436.923 547.83 436.983 548.19 437.03 548.55C437.03 548.66 437.03 548.76 437.03 548.87C437.03 549.16 437.09 549.45 437.11 549.74C437.91 561.71 425.49 572.53 409.75 581.33Z" fill="black"/>
<path d="M115.32 636.59C115.32 636.59 147.72 642.59 164.65 641.5C164.65 641.5 195.78 643.14 212.53 638.23C212.53 638.23 261.53 628.03 267.14 626.03C272.75 624.03 294.63 617.47 294.63 617.47C294.63 617.47 337.23 599.63 349.24 602.54C349.24 602.54 443.54 578.15 436.8 545.2C430.06 512.25 370.54 519.72 351.8 532.09C333.06 544.46 335.8 545.75 326.5 547.75C326.5 547.75 307.2 552.48 298.28 552.3C289.36 552.12 249.49 558.49 249.49 558.49C249.49 558.49 218.18 559.95 198.89 553.94C179.6 547.93 175.77 553.21 175.77 553.21L115.32 636.59Z" fill="#FFA2A2"/>
<path opacity="0.1" d="M185.58 551.07C185.585 551.11 185.585 551.15 185.58 551.19C185.51 551.933 185.318 552.66 185.01 553.34C181.17 562.76 159.37 588.17 159.37 588.17C158.376 591.188 157.177 594.135 155.78 596.99C152.776 603.092 149.316 608.958 145.43 614.54C139.669 622.89 133.38 630.863 126.6 638.41H126.55C125.687 639.05 124.789 639.641 123.86 640.18C121.51 641.58 117.98 643.31 114.65 643.52C114.083 643.554 113.514 643.537 112.95 643.47C113.3 643.47 113.64 643.39 113.95 643.33L112.73 642.97L111.06 642.45C108.26 641.57 105.483 640.607 102.73 639.56L101.06 638.92C98.3935 637.893 95.7835 636.79 93.2301 635.61L91.5601 634.85C88.8935 633.61 86.2835 632.3 83.7301 630.92C82.8101 630.44 81.9001 629.92 81.0001 629.43C78.2801 627.91 75.6135 626.317 73.0001 624.65C70.2268 622.883 67.5135 621.04 64.8601 619.12C62.8601 615.41 61.2101 612.12 60.3101 610.35C58.6701 607.06 58.5301 602.35 58.7301 598.94C58.7301 598.59 58.7301 598.26 58.7901 597.94C58.9601 595.8 59.2201 594.33 59.2201 594.33C57.7384 592.349 56.4016 590.264 55.2201 588.09C54.5414 587.011 54.1554 585.774 54.1001 584.5C54.1454 583.989 54.0979 583.474 53.9601 582.98C53.1901 579.82 49.8801 574.39 46.8201 570.98C44.5401 568.47 44.4001 559.09 44.6201 552.44C44.7501 548.44 45.0001 545.5 45.0001 545.5C44.552 545.211 44.2167 544.777 44.0501 544.27C43.246 542.081 42.7023 539.806 42.4301 537.49C42.4301 537.16 42.3401 536.83 42.2901 536.49C41.6501 531.9 41.3601 527.29 41.3601 527.29C33.9601 521.9 30.4401 513.49 28.8001 505.99L28.5901 504.99C27.6895 500.38 27.3071 495.685 27.4501 490.99C27.4501 490.54 27.4501 490.2 27.4501 489.99C27.4501 489.78 27.4501 489.74 27.4501 489.74C27.4501 489.74 28.4301 468.07 31.1701 459.61C31.2801 459.25 31.4001 458.92 31.5201 458.61C31.722 458.079 31.9837 457.572 32.3001 457.1C33.3001 455.77 34.0101 453.26 34.6001 450.29C35.0101 448.23 35.3501 445.94 35.6001 443.66C35.8301 441.76 36.0101 439.87 36.1501 438.12C36.5401 433.44 36.6601 429.79 36.6601 429.79L34.8101 420.67C34.3001 418.18 33.9101 415.67 33.6401 413.16C33.6401 412.83 33.5601 412.5 33.5201 412.16C33.0524 407.525 32.9688 402.859 33.2701 398.21C33.2701 397.87 33.2701 397.54 33.3301 397.21C34.1109 386.621 36.8792 376.274 41.4901 366.71L41.9901 365.71C42.6568 364.377 43.3568 363.067 44.0901 361.78C44.6201 360.83 45.1801 359.89 45.7601 358.96C47.2977 356.47 48.9667 354.063 50.7601 351.75C51.0201 351.41 51.2901 351.08 51.5601 350.75C54.6805 346.881 58.1483 343.307 61.9201 340.07C72.0201 331.39 81.2901 327.62 89.7101 327.33C126.53 326.03 147.18 391.15 150.52 402.56C150.84 403.66 151 404.26 151 404.26C151 404.26 165.92 419.19 161.55 425.74C160.703 427.182 160.187 428.794 160.04 430.46C158.84 439.27 162.28 453.78 162.28 453.78C162.28 453.78 163.5 457.78 167.06 467.36L168.11 470.16C170.34 476.16 170.86 486.23 169.58 495.25C168.35 503.89 165.46 511.53 160.83 513.49C151.36 517.49 153.91 521.49 156.09 524.78C157.386 527.138 158.467 529.608 159.32 532.16C160.69 535.85 161.96 539.73 162.44 541.24C162.58 541.66 162.65 541.89 162.65 541.89C163.977 541.377 165.355 541.008 166.76 540.79C168.55 540.54 170.32 540.72 170.66 542.25C170.84 543.07 171.87 544.04 173.32 545.01C177.62 547.97 185.58 551.07 185.58 551.07Z" fill="black"/>
<path d="M183.4 551.07C183.339 551.831 183.146 552.575 182.83 553.27C179.01 562.7 157.19 588.17 157.19 588.17C156.192 591.187 154.993 594.134 153.6 596.99C151.187 601.918 148.458 606.684 145.43 611.26C139.161 620.716 132.217 629.706 124.65 638.16L124.42 638.41C124.42 638.41 123.54 639.08 122.14 639.94C119.639 641.537 116.882 642.693 113.99 643.36L112.77 643L111.1 642.48C108.3 641.6 105.523 640.637 102.77 639.59L101.1 638.95C98.4334 637.923 95.8234 636.82 93.2701 635.64L91.6001 634.88C88.9334 633.64 86.3234 632.33 83.7701 630.95C82.8501 630.47 81.9401 629.95 81.0401 629.46C78.3201 627.94 75.6534 626.347 73.0401 624.68C70.2668 622.913 67.5534 621.07 64.9001 619.15C63.6734 618.27 62.4601 617.367 61.2601 616.44C59.9101 613.88 58.8301 611.72 58.1601 610.38C56.5201 607.09 56.3801 602.38 56.5801 598.97C56.5801 598.62 56.5801 598.29 56.6401 597.97C56.8101 595.83 57.0701 594.36 57.0701 594.36C57.0701 594.36 56.2601 593.27 55.2801 591.79C54.7301 590.97 54.1401 590.02 53.6101 589.08C52.6101 587.32 51.8301 585.54 51.9801 584.53C52.0004 584.357 52.0004 584.183 51.9801 584.01C51.9651 583.672 51.9148 583.337 51.8301 583.01C51.0601 579.85 47.7401 574.42 44.6801 571.01C42.4001 568.5 42.2601 559.12 42.4701 552.47C42.4701 552.13 42.4701 551.8 42.4701 551.47C42.6101 548.02 42.8201 545.53 42.8201 545.53C41.6901 545.04 40.8201 541.41 40.2601 537.53L40.1101 536.53C39.4701 531.94 39.1801 527.33 39.1801 527.33C31.7801 521.94 28.2601 513.53 26.6301 506.03C25.4945 500.777 25.0574 495.397 25.3301 490.03C25.3301 489.87 25.3301 489.78 25.3301 489.78C25.3301 489.78 26.1901 468 28.9301 459.53C29.0401 459.17 29.1601 458.84 29.2801 458.53C29.5201 458.011 29.8187 457.521 30.1701 457.07C31.6901 454.95 32.7001 449.85 33.3601 444.63L33.4801 443.63C34.3101 436.63 34.5401 429.76 34.5401 429.76L32.6801 420.64C32.1734 418.14 31.7834 415.637 31.5101 413.13C31.4601 412.8 31.4301 412.46 31.3901 412.13C30.9225 407.495 30.8389 402.829 31.1401 398.18C31.1401 397.84 31.1401 397.51 31.2101 397.18C31.9862 386.59 34.7547 376.242 39.3701 366.68C39.5301 366.34 39.6901 366.01 39.8701 365.68C41.1559 363.083 42.5847 360.559 44.1501 358.12C44.6901 357.27 45.2401 356.43 45.8201 355.6C46.7301 354.28 47.6801 352.98 48.6701 351.72L49.4701 350.72C52.5638 346.866 56.0013 343.302 59.7401 340.07C70.7401 330.64 80.7401 327 89.7401 327.33C125.19 328.6 145.09 391.38 148.36 402.56C148.68 403.66 148.84 404.26 148.84 404.26C148.84 404.26 163.77 419.19 159.4 425.74C158.553 427.182 158.037 428.794 157.89 430.46C156.68 439.27 160.13 453.78 160.13 453.78C160.13 453.78 161.35 457.78 164.91 467.36C165.23 468.25 165.58 469.18 165.91 470.16C168.14 476.16 168.66 486.23 167.38 495.25C166.15 503.9 163.27 511.53 158.63 513.49C149.17 517.49 151.71 521.49 153.9 524.78C155.196 527.138 156.277 529.608 157.13 532.16C158.86 536.87 160.45 541.89 160.45 541.89C161.105 541.637 161.772 541.42 162.45 541.24C163.841 540.783 165.315 540.629 166.77 540.79C167.173 540.821 167.555 540.979 167.863 541.242C168.17 541.504 168.386 541.857 168.48 542.25C168.75 543.45 170.82 544.94 173.33 546.35C176.589 548.124 179.952 549.7 183.4 551.07V551.07Z" fill="#CED7E7"/>
<path opacity="0.1" d="M51.7798 454.91C55.2398 454.73 92.3798 440.35 100.03 445.26C107.68 450.17 155.03 482.03 155.03 482.03C155.03 482.03 125.36 443.26 99.5098 434.16C73.6598 425.06 51.7798 454.91 51.7798 454.91Z" fill="black"/>
<path opacity="0.1" d="M105.17 513.53C105.17 513.53 142.31 520.99 147.95 526.09L105.17 513.53Z" fill="black"/>
<path opacity="0.1" d="M98.0202 569.07C97.4802 569.62 84.0202 599.83 85.1002 599.83C86.1802 599.83 97.6602 581.83 97.6602 581.83L98.0202 569.07Z" fill="black"/>
<path opacity="0.1" d="M123.33 532.82C123.33 532.82 112.41 536.65 113.68 537.01C114.95 537.37 122.96 534.46 123.33 532.82Z" fill="black"/>
<path opacity="0.1" d="M112.41 578.52C114.23 582.34 120.05 593.81 121.33 591.99C122.61 590.17 112.41 578.52 112.41 578.52Z" fill="black"/>
<path opacity="0.1" d="M248.73 275.74L247.17 277.96C247.17 277.96 234.78 269.23 229.69 264.86C224.6 260.49 212.58 280.51 203.11 285.97C193.64 291.43 177.63 292.89 177.63 292.89C177.63 292.89 165.25 280.51 165.63 276.89C166.01 273.27 159.81 272.16 159.44 269.61C159.07 267.06 156.89 259.78 153.98 256.14C152.44 254.22 152.22 248.21 152.36 242.98C153.36 242.78 153.98 242.67 153.98 242.67C155.534 239.846 157.499 237.268 159.81 235.02C163.09 232.11 168.18 214.27 168.18 214.27C171.09 204.44 176.91 207.35 176.91 207.35C176.91 222.28 192.21 227.74 199.85 233.93C207.49 240.12 219.51 256.14 228.98 259.42C236.75 262.07 245.84 272.32 248.73 275.74Z" fill="black"/>
<path d="M248.73 273.55L247.17 275.78C247.17 275.78 234.73 267.07 229.64 262.67C224.55 258.27 212.53 278.32 203.06 283.78C193.59 289.24 177.58 290.71 177.58 290.71C177.58 290.71 165.2 278.32 165.58 274.71C165.96 271.1 159.76 269.98 159.39 267.42C159.02 264.86 156.84 257.59 153.93 253.95C152.39 252.03 152.17 246.02 152.31 240.79L153.93 240.49C155.484 237.666 157.449 235.088 159.76 232.84C163.04 229.92 168.13 212.09 168.13 212.09C171.04 202.26 176.86 205.16 176.86 205.16C176.86 220.09 192.16 225.56 199.8 231.75C207.44 237.94 219.46 253.95 228.93 257.23C236.75 259.92 245.84 270.13 248.73 273.55Z" fill="#CED7E7"/>
<path opacity="0.1" d="M249.66 276.51C249.66 276.51 238.93 282.33 230.55 282.88C229.453 282.931 228.354 282.868 227.27 282.69C227.27 282.69 236.52 275.78 245.11 274.37L249.66 276.51Z" fill="black"/>
<path opacity="0.1" d="M271.51 306.18C271.51 306.18 257.98 300.91 253.51 308.84C253.66 305.2 253.72 302.18 253.72 302.18L268.47 299.26C268.47 299.26 269.89 301.89 271.55 305.43C271.51 305.9 271.51 306.18 271.51 306.18Z" fill="black"/>
<path d="M227.27 282.69C227.27 282.69 243.48 272.96 251.27 273.78C259.44 274.63 275.27 275.23 275.27 275.23C275.27 275.23 269.81 287.61 270.54 290.16C271.27 292.71 271.45 305.09 271.45 305.09C271.45 305.09 255.07 298.72 252.34 310.55C252.34 310.55 243.42 297.26 237.41 293.25C233.422 290.369 229.987 286.792 227.27 282.69Z" fill="#63667E"/>
<path opacity="0.1" d="M318.84 293.99C314.11 293.99 297.36 283.42 293.72 276.51C290.08 269.6 284.98 277.23 280.25 279.79C277.25 281.43 265.36 278 258.95 275.51C262.2 273.3 269.4 267.08 271.51 265.59C274.05 263.76 276.61 234.27 276.61 234.27C285.71 229.54 295.54 272.5 295.54 272.5C295.54 272.5 312.66 277.6 314.11 281.24C314.39 281.96 315.68 283.24 317.62 284.79C319.62 289.83 320.72 293.99 318.84 293.99Z" fill="black"/>
<path d="M318.84 291.8C314.11 291.8 297.36 281.24 293.72 274.33C290.08 267.42 284.98 275.05 280.25 277.6C277.25 279.24 267.72 276.07 261.31 273.6C264.56 271.4 269.4 264.92 271.51 263.42C274.05 261.6 276.61 232.11 276.61 232.11C285.71 227.38 295.54 270.34 295.54 270.34C295.54 270.34 312.66 275.44 314.11 279.08C314.39 279.8 315.68 281.08 317.62 282.63C319.62 287.64 320.72 291.8 318.84 291.8Z" fill="#CED7E7"/>
<path d="M383.53 610.77L541.84 478.77C543.42 477.436 545.433 476.724 547.5 476.77L606.56 478.32C606.56 478.32 610.65 481.32 604.65 487.88L455.31 610.43C453.696 611.749 451.693 612.501 449.61 612.57L385.03 614.71C384.566 614.725 384.109 614.594 383.723 614.337C383.337 614.08 383.041 613.708 382.876 613.275C382.711 612.841 382.685 612.367 382.802 611.918C382.92 611.469 383.174 611.068 383.53 610.77Z" fill="#F50057"/>
<path d="M460.11 594.53C460.11 594.53 494.69 644.05 533.11 597.99C571.53 551.93 560.42 527.73 548.77 526.45C537.12 525.17 471.57 575.6 460.11 594.53Z" fill="#FFA2A2"/>
</svg>
