<svg width="520" height="332" viewBox="0 0 520 332" fill="none" xmlns="http://www.w3.org/2000/svg">
<path d="M520 0.972046L22.62 0.972046C19.7716 0.971892 16.951 1.53283 14.3194 2.6228C11.6878 3.71277 9.29666 5.31045 7.28253 7.32458C5.2684 9.33872 3.67072 11.7298 2.58075 14.3615C1.49078 16.9931 0.929839 19.8136 0.929993 22.662V310.282C0.926015 312.204 1.18167 314.118 1.69 315.972C2.9379 320.567 5.6636 324.624 9.44635 327.515C13.2291 330.407 17.8586 331.973 22.62 331.972H216.89C221.422 324.338 224.215 315.799 225.07 306.962C227.48 281.272 212.75 257.522 199.57 235.332C186.39 213.142 173.82 187.342 180.8 162.492C185.52 145.732 198.31 133.602 214.18 126.332C229.429 119.584 246.203 117.029 262.77 118.932C272.72 120.189 282.521 122.426 292.03 125.612C304.5 129.662 316.68 134.912 328.84 140.222C328.85 140.222 328.85 140.222 328.86 140.232C329.07 140.322 329.29 140.422 329.5 140.512C338.91 144.622 348.31 148.742 357.85 152.372C369.028 156.743 380.63 159.941 392.47 161.912C410.46 164.732 428.6 163.712 444.65 155.552C470.81 142.262 484.83 113.542 495.8 86.3221C506.88 58.8021 516.81 30.3621 520 0.972046Z" fill="#F50057"/>
</svg>
