<svg width="1073" height="709" viewBox="0 0 1073 709" fill="none" xmlns="http://www.w3.org/2000/svg">
<path opacity="0.1" d="M1054.17 551.33C1027.61 606.14 973.65 642.79 917.75 666.96C872.994 686.184 825.684 698.809 777.3 704.44C768.033 705.54 758.737 706.393 749.41 707C725.578 708.553 701.669 708.527 677.84 706.92C663.507 705.967 649.223 704.443 634.99 702.35C585.534 695.135 537.318 681.095 491.72 660.63C478.56 654.703 465.667 648.233 453.04 641.22C431.95 629.531 411.743 616.316 392.58 601.68C388.34 598.44 384.153 595.13 380.02 591.75L378.32 590.36C375.07 587.68 371.85 584.94 368.58 582.28C363.145 577.727 357.375 573.589 351.32 569.9C350.91 569.66 350.5 569.42 350.08 569.19C348.96 568.54 347.82 567.93 346.66 567.35C344.27 566.145 341.82 565.064 339.32 564.11C327.77 559.71 315.4 558.11 302.86 558.38C300.78 558.38 298.7 558.52 296.61 558.66C293.69 558.86 290.76 559.16 287.84 559.54L286.76 559.69C277.455 561.007 268.255 562.982 259.23 565.6C245.29 569.6 231.6 574.6 217.82 579.11C211.97 581.04 206.11 582.88 200.2 584.53L198.9 584.89C190.495 587.254 181.938 589.045 173.29 590.25C153.638 592.763 133.677 591.155 114.68 585.53L114.02 585.34L112.8 584.98L111.13 584.46C108.33 583.58 105.553 582.617 102.8 581.57L101.13 580.93C98.4634 579.903 95.8534 578.8 93.3 577.62L91.6301 576.86C88.9634 575.62 86.3534 574.31 83.8 572.93C82.88 572.45 81.97 571.93 81.07 571.44C78.35 569.92 75.6834 568.327 73.07 566.66C70.2967 564.893 67.5834 563.05 64.93 561.13C63.7034 560.25 62.49 559.347 61.29 558.42C54.3725 553.129 47.8947 547.287 41.92 540.95C41.59 540.62 41.28 540.28 40.97 539.95C39.38 538.23 37.82 536.48 36.31 534.69C35.75 534.03 35.19 533.37 34.64 532.69C32.8467 530.503 31.1167 528.267 29.45 525.98C29.2 525.65 28.96 525.31 28.72 524.98C21.8874 515.531 16.2229 505.29 11.85 494.48C11.71 494.15 11.58 493.81 11.46 493.48C10.1267 490.047 8.91004 486.557 7.81004 483.01C7.36004 481.53 6.93004 480.01 6.55004 478.53C6.42004 478.09 6.30004 477.64 6.19004 477.2C0.670037 455.47 0.0400391 432.88 0.0400391 410.42C0.0400391 407.8 0.0400391 405.183 0.0400391 402.57C0.200039 366.24 0.760037 329.29 6.12004 293.46C6.12004 293.21 6.19004 292.96 6.23004 292.72C8.024 280.658 10.4642 268.701 13.54 256.9C16.7592 244.518 20.8734 232.386 25.85 220.6C38.18 191.6 56.1101 165.21 76.0201 140.75C100.02 111.32 127.52 84.1601 158.15 61.7501C162.55 58.5301 167.01 55.4035 171.53 52.3701L173.62 51.0001C174.35 50.5101 175.08 50.0001 175.81 49.5701C177.31 48.5701 178.81 47.6301 180.33 46.6801L182.03 45.6201L185.27 43.6201L186.27 43.0501L188 42.0501L189.71 41.0501C191.71 39.8701 193.733 38.7168 195.78 37.5901C204.52 32.7168 213.467 28.2635 222.62 24.2301C225.32 23.0368 228.037 21.8868 230.77 20.7801C243.18 15.726 255.927 11.5458 268.92 8.27012C273.72 7.05678 278.55 5.99012 283.41 5.07012C289.143 3.96345 294.907 3.04679 300.7 2.32012C309.919 1.16019 319.191 0.469294 328.48 0.250113C393.8 -1.33989 459.78 19.9201 510.97 60.6701C531.37 76.9101 549.7 96.1401 572.61 108.59C592.61 119.43 616.02 123.92 637.44 115.39C655.14 108.34 666.66 104.84 686.54 105.91C727.677 108.227 768.232 116.709 806.85 131.07C808.41 131.64 809.97 132.23 811.52 132.82C912.23 171.37 998.82 247.92 1043.8 346.29C1044.99 348.89 1046.14 351.51 1047.27 354.15C1074.1 416.8 1083.78 490.25 1054.17 551.33Z" fill="#F50057"/>
<g opacity="0.1">
<path opacity="0.1" d="M171.71 51.78C171.87 51.14 171.886 50.4724 171.756 49.8256C171.626 49.1788 171.354 48.5689 170.96 48.04C171.22 48.82 170.09 49.27 170.71 49.92C171.204 50.4393 171.549 51.0817 171.71 51.78Z" fill="black"/>
<path opacity="0.1" d="M170.93 45.75C170.812 46.099 170.741 46.4622 170.72 46.83C170.91 46.51 171.17 46.18 170.93 45.75Z" fill="black"/>
<path opacity="0.1" d="M334.59 67.07C329.32 72.07 319.99 70 312.8 68.83C306.573 67.8275 300.492 66.0713 294.69 63.6C289.62 61.44 283.56 58.8 279 61.9C277.26 63.08 276.06 64.97 274.23 66.01C272.4 67.05 270.09 67.12 267.94 67.14C260.94 67.14 253.94 67.23 247.1 65.64C236.92 63.26 226.38 57.29 216.69 61.22C209.11 64.31 205 72.56 202.95 80.49C201.95 84.38 201.22 88.49 198.95 91.79C196.68 95.09 192.31 97.43 188.6 95.89C183.11 93.59 182.3 84.28 175.68 83.81C170.51 83.44 169.07 87.14 169.42 91.25C169.72 88.11 171.42 85.69 175.68 85.99C182.3 86.46 183.11 95.78 188.6 98.07C192.31 99.62 196.69 97.29 198.95 93.97C201.21 90.65 201.95 86.56 202.95 82.68C205 74.75 209.11 66.49 216.69 63.41C226.38 59.47 236.92 65.41 247.1 67.83C253.9 69.42 260.96 69.37 267.94 69.32C270.09 69.32 272.36 69.26 274.23 68.2C276.1 67.14 277.23 65.27 279 64.08C283.56 60.99 289.62 63.63 294.69 65.78C300.493 68.25 306.574 70.0094 312.8 71.02C319.99 72.18 329.32 74.27 334.59 69.25C337.45 66.52 338.31 62.57 338.12 58.25C337.96 61.68 336.96 64.79 334.59 67.07Z" fill="black"/>
<path opacity="0.1" d="M185.65 17.21C185.595 17.7079 185.575 18.2092 185.59 18.71C185.69 20.79 186.48 22.87 186.73 24.9C187.1 22.41 185.95 19.81 185.65 17.21Z" fill="black"/>
<path opacity="0.1" d="M165.33 88.1599C165.412 88.4589 165.476 88.7629 165.52 89.0699C165.682 88.0383 165.617 86.9838 165.33 85.9799C164.734 84.5515 164.011 83.1793 163.17 81.8799C162.419 80.4006 161.973 78.7851 161.86 77.1299C161.657 79.5193 162.11 81.919 163.17 84.0699C164.013 85.3647 164.736 86.7337 165.33 88.1599Z" fill="black"/>
<path opacity="0.1" d="M177.74 125.14L171.89 125.05C172.026 125.403 172.081 125.783 172.05 126.161C172.019 126.538 171.903 126.904 171.71 127.23C173.36 127.23 176.1 127.29 177.71 127.33C177.99 125.618 178.087 123.882 178 122.15C177.977 123.151 177.89 124.15 177.74 125.14Z" fill="black"/>
<path opacity="0.1" d="M168.17 119.61C165.78 118.89 163 118.88 161.22 117.13C160.172 115.984 159.581 114.493 159.56 112.94C159.41 115.24 159.56 117.72 161.22 119.32C163 121.07 165.78 121.08 168.17 121.8C168.948 122.026 169.671 122.409 170.295 122.925C170.919 123.441 171.431 124.079 171.8 124.8C172.81 122.73 170.49 120.3 168.17 119.61Z" fill="black"/>
</g>
</svg>
