<svg width="546" height="366" viewBox="0 0 546 366" fill="none" xmlns="http://www.w3.org/2000/svg">
<path d="M529.773 0H36.0123C31.7701 0.00674883 27.7036 1.69493 24.7039 4.6946C21.7042 7.69426 20.0161 11.7607 20.0093 16.0029V349.194C20.0134 353.437 21.7007 357.505 24.701 360.506C27.7012 363.506 31.7693 365.193 36.0123 365.197H529.773C534.016 365.193 538.084 363.506 541.084 360.506C544.084 357.505 545.771 353.437 545.776 349.194V16.0029C545.769 11.7607 544.08 7.69426 541.081 4.6946C538.081 1.69493 534.015 0.00674619 529.773 0Z" fill="#E6E6E6"/>
<path d="M525.651 11.5587H40.1375C37.8661 11.5637 35.6894 12.4694 34.085 14.0771C32.4805 15.6849 31.5793 17.8635 31.5791 20.1349V345.068C31.583 347.336 32.4859 349.511 34.0901 351.115C35.6942 352.719 37.8688 353.622 40.1375 353.626H525.651C527.92 353.622 530.094 352.719 531.698 351.115C533.302 349.511 534.205 347.336 534.209 345.068V20.1349C534.209 17.8635 533.308 15.6849 531.703 14.0771C530.099 12.4694 527.922 11.5637 525.651 11.5587Z" fill="white"/>
<path d="M534.209 20.1349V345.068C534.206 347.336 533.303 349.511 531.698 351.115C530.094 352.719 527.92 353.622 525.651 353.626H354.448C335.509 336.062 319.971 315.156 308.614 291.956C307.867 290.462 307.155 288.949 306.479 287.419C296.131 264.964 289.865 240.846 287.974 216.194C287.85 214.682 287.743 213.169 287.672 211.639C287.44 207.725 287.334 203.757 287.334 199.771C287.3 173.264 292.305 146.992 302.084 122.355C302.671 120.825 303.294 119.312 303.934 117.8C323.614 71.5612 359.175 33.8805 404.197 11.5587H525.651C527.922 11.5636 530.099 12.4694 531.704 14.0771C533.308 15.6849 534.209 17.8635 534.209 20.1349Z" fill="#F50057"/>
<path d="M501.245 56.3272H46.9521C46.4796 56.3171 46.0299 56.1223 45.6993 55.7846C45.3687 55.4469 45.1836 54.9932 45.1836 54.5206C45.1836 54.048 45.3687 53.5942 45.6993 53.2565C46.0299 52.9188 46.4796 52.7241 46.9521 52.714H501.245C501.718 52.7241 502.167 52.9188 502.498 53.2565C502.828 53.5942 503.014 54.048 503.014 54.5206C503.014 54.9932 502.828 55.4469 502.498 55.7846C502.167 56.1223 501.718 56.3171 501.245 56.3272V56.3272Z" fill="#CACACA"/>
<path d="M77.8766 43.4899C83.7239 43.4899 88.4641 38.6441 88.4641 32.6665C88.4641 26.6888 83.7239 21.843 77.8766 21.843C72.0293 21.843 67.2891 26.6888 67.2891 32.6665C67.2891 38.6441 72.0293 43.4899 77.8766 43.4899Z" fill="#3F3D56"/>
<path d="M114.452 43.4899C120.299 43.4899 125.039 38.6441 125.039 32.6665C125.039 26.6888 120.299 21.843 114.452 21.843C108.604 21.843 103.864 26.6888 103.864 32.6665C103.864 38.6441 108.604 43.4899 114.452 43.4899Z" fill="#3F3D56"/>
<path d="M151.026 43.4899C156.874 43.4899 161.614 38.6441 161.614 32.6665C161.614 26.6888 156.874 21.843 151.026 21.843C145.179 21.843 140.439 26.6888 140.439 32.6665C140.439 38.6441 145.179 43.4899 151.026 43.4899Z" fill="#3F3D56"/>
<path d="M479.224 24.5256H453.243C452.728 24.5358 452.237 24.7476 451.877 25.1154C451.516 25.4832 451.314 25.9778 451.314 26.4929C451.314 27.008 451.516 27.5025 451.877 27.8703C452.237 28.2382 452.728 28.4499 453.243 28.4601H479.224C479.739 28.4499 480.229 28.2382 480.59 27.8703C480.951 27.5025 481.153 27.008 481.153 26.4929C481.153 25.9778 480.951 25.4832 480.59 25.1154C480.229 24.7476 479.739 24.5358 479.224 24.5256V24.5256Z" fill="#3F3D56"/>
<path d="M479.224 31.91H453.243C452.728 31.9202 452.237 32.132 451.877 32.4998C451.516 32.8676 451.314 33.3622 451.314 33.8773C451.314 34.3924 451.516 34.8869 451.877 35.2547C452.237 35.6226 452.728 35.8343 453.243 35.8445H479.224C479.739 35.8343 480.229 35.6226 480.59 35.2547C480.951 34.8869 481.153 34.3924 481.153 33.8773C481.153 33.3622 480.951 32.8676 480.59 32.4998C480.229 32.132 479.739 31.9202 479.224 31.91V31.91Z" fill="#3F3D56"/>
<path d="M479.224 39.2847H453.243C452.728 39.2949 452.237 39.5066 451.877 39.8744C451.516 40.2422 451.314 40.7368 451.314 41.2519C451.314 41.767 451.516 42.2616 451.877 42.6294C452.237 42.9972 452.728 43.2089 453.243 43.2191H479.224C479.739 43.2089 480.229 42.9972 480.59 42.6294C480.951 42.2616 481.153 41.767 481.153 41.2519C481.153 40.7368 480.951 40.2422 480.59 39.8744C480.229 39.5066 479.739 39.2949 479.224 39.2847V39.2847Z" fill="#3F3D56"/>
<path d="M186.051 161.871H122.522C120.126 161.871 118.183 163.813 118.183 166.21V172.972C118.183 175.369 120.126 177.311 122.522 177.311H186.051C188.447 177.311 190.39 175.369 190.39 172.972V166.21C190.39 163.813 188.447 161.871 186.051 161.871Z" fill="#F50057"/>
<path d="M222.722 192.752H85.8507C83.4544 192.752 81.5117 194.694 81.5117 197.091V203.853C81.5117 206.25 83.4544 208.192 85.8507 208.192H222.722C225.119 208.192 227.061 206.25 227.061 203.853V197.091C227.061 194.694 225.119 192.752 222.722 192.752Z" fill="#E6E6E6"/>
<path d="M222.722 223.633H85.8507C83.4544 223.633 81.5117 225.575 81.5117 227.972V234.734C81.5117 237.131 83.4544 239.073 85.8507 239.073H222.722C225.119 239.073 227.061 237.131 227.061 234.734V227.972C227.061 225.575 225.119 223.633 222.722 223.633Z" fill="#E6E6E6"/>
<path d="M93.3914 334.997C93.4021 341.357 92.2691 347.667 90.0464 353.626H40.1375C37.8688 353.622 35.6942 352.719 34.0901 351.115C32.4859 349.511 31.583 347.337 31.5791 345.068V282.295C34.3677 281.844 37.1881 281.618 40.0129 281.619C47.0228 281.618 53.9641 282.999 60.4405 285.681C66.9169 288.363 72.8015 292.295 77.7582 297.252C82.715 302.209 86.6468 308.093 89.3292 314.57C92.0115 321.046 93.3919 327.987 93.3914 334.997V334.997Z" fill="#F50057"/>
<path opacity="0.2" d="M534.654 122.355V117.8H458.305V65.0084H453.768V117.8H366.263V65.0084H361.726V117.8H303.935C303.294 119.312 302.671 120.825 302.084 122.355H361.726V211.639H287.672C287.743 213.169 287.85 214.682 287.974 216.194H361.726V287.419H306.479C307.155 288.949 307.867 290.462 308.614 291.956H361.726V351.829H366.263V291.956H453.768V351.829H458.305V291.956H534.654V287.419H458.305V287.419C458.305 278.066 460.148 268.804 463.727 260.162C467.306 251.521 472.553 243.669 479.167 237.055C485.78 230.442 493.632 225.195 502.274 221.616C510.915 218.036 520.177 216.194 529.53 216.194H534.654V211.639H458.305V122.355H534.654ZM453.768 287.419H366.263V216.194H453.768V287.419ZM453.768 211.639H366.263V209.86C366.263 186.652 375.482 164.395 391.893 147.984C408.303 131.574 430.56 122.355 453.768 122.355H453.768V211.639Z" fill="black"/>
<path d="M473.182 319.916C472.208 319.96 471.244 319.705 470.42 319.183C469.596 318.662 468.953 317.9 468.577 317C468.201 316.101 468.11 315.107 468.317 314.155C468.525 313.202 469.02 312.336 469.736 311.674C469.856 311.198 469.942 310.856 470.062 310.379C470.019 310.276 469.976 310.172 469.932 310.068C465.555 299.63 450.719 299.702 446.379 310.156C442.527 319.434 437.622 328.728 436.415 338.537C435.883 342.874 436.107 347.269 437.078 351.529C428.03 331.792 423.332 310.341 423.301 288.629C423.3 283.181 423.602 277.736 424.208 272.322C424.709 267.883 425.404 263.476 426.292 259.101C431.142 235.359 441.554 213.107 456.673 194.171C463.991 190.178 469.909 184.038 473.629 176.578C474.977 173.897 475.93 171.034 476.458 168.08C475.632 168.188 474.793 168.256 473.968 168.31C473.711 168.323 473.44 168.337 473.183 168.35L473.086 168.355C472.179 168.396 471.279 168.173 470.495 167.714C469.711 167.256 469.077 166.58 468.668 165.769C468.259 164.958 468.094 164.046 468.191 163.144C468.288 162.241 468.645 161.385 469.217 160.68C469.573 160.241 469.93 159.803 470.287 159.365C470.828 158.688 471.383 158.025 471.924 157.348C471.987 157.284 472.045 157.216 472.1 157.145C472.723 156.374 473.345 155.616 473.968 154.845C472.831 153.081 471.303 151.604 469.502 150.528C463.263 146.874 454.657 149.405 450.15 155.048C445.63 160.691 444.778 168.608 446.347 175.658C447.687 181.694 450.61 187.229 453.899 192.493C453.56 192.926 453.209 193.345 452.87 193.778C446.686 201.731 441.296 210.27 436.777 219.274C437.876 209.187 436.564 198.983 432.95 189.502C429.287 180.666 422.422 173.224 416.376 165.585C409.114 156.41 394.223 160.414 392.943 172.045C392.931 172.158 392.919 172.271 392.907 172.383C393.805 172.89 394.684 173.427 395.544 173.996C396.625 174.718 397.462 175.75 397.946 176.955C398.43 178.161 398.539 179.485 398.258 180.754C397.977 182.023 397.319 183.177 396.371 184.065C395.423 184.954 394.228 185.535 392.944 185.733L392.812 185.753C393.132 188.99 393.698 192.197 394.504 195.348C396.84 204.144 400.968 212.362 406.629 219.488C412.29 226.614 419.362 232.494 427.402 236.758C427.93 237.029 428.444 237.299 428.972 237.557C424.432 250.422 421.584 263.824 420.5 277.424C419.887 285.447 419.923 293.508 420.608 301.525L420.568 301.241C418.836 292.326 414.079 284.281 407.103 278.466C396.741 269.954 382.101 266.819 370.922 259.977C365.541 256.684 358.645 260.94 359.585 267.179C359.6 267.278 359.615 267.378 359.63 267.477C361.297 268.156 362.919 268.938 364.488 269.818C365.386 270.325 366.265 270.863 367.126 271.432C368.206 272.153 369.043 273.185 369.528 274.391C370.012 275.597 370.121 276.921 369.839 278.189C369.558 279.458 368.901 280.612 367.952 281.501C367.004 282.389 365.81 282.97 364.525 283.168L364.394 283.189C364.299 283.202 364.218 283.216 364.123 283.229C366.97 290.028 370.967 296.286 375.937 301.728C382.077 308.317 389.498 313.582 397.745 317.2C405.992 320.819 414.891 322.715 423.897 322.772H423.91C426.355 333.395 429.897 343.735 434.48 353.626H472.235C472.371 353.207 472.493 352.774 472.615 352.354C469.12 352.574 465.611 352.365 462.167 351.732C464.969 348.294 467.77 344.83 470.571 341.393C470.633 341.328 470.692 341.261 470.747 341.19C472.168 339.43 473.602 337.685 475.023 335.926L475.024 335.923C475.1 330.531 474.481 325.151 473.183 319.916L473.182 319.916ZM429.946 234.864L429.966 234.837L429.946 234.891V234.864ZM421.583 310.254L421.258 309.523C421.272 308.996 421.272 308.468 421.258 307.927C421.258 307.778 421.231 307.629 421.231 307.48C421.353 308.414 421.461 309.347 421.596 310.281L421.583 310.254Z" fill="#2F2E41"/>
<path d="M68.0455 246.426H41.5167C39.1204 246.426 37.1777 248.368 37.1777 250.765V257.527C37.1777 259.924 39.1204 261.866 41.5167 261.866H68.0455C70.4419 261.866 72.3845 259.924 72.3845 257.527V250.765C72.3845 248.368 70.4419 246.426 68.0455 246.426Z" fill="#F50057"/>
<path d="M104.717 277.307H4.84532C2.44897 277.307 0.506348 279.25 0.506348 281.646V288.408C0.506348 290.805 2.44897 292.747 4.84532 292.747H104.717C107.113 292.747 109.056 290.805 109.056 288.408V281.646C109.056 279.25 107.113 277.307 104.717 277.307Z" fill="#E6E6E6"/>
<path d="M104.717 308.188H4.84532C2.44897 308.188 0.506348 310.131 0.506348 312.527V319.29C0.506348 321.686 2.44897 323.629 4.84532 323.629H104.717C107.113 323.629 109.056 321.686 109.056 319.29V312.527C109.056 310.131 107.113 308.188 104.717 308.188Z" fill="#E6E6E6"/>
</svg>
